<svg width="22" height="28" viewBox="0 0 22 28" fill="none" xmlns="http://www.w3.org/2000/svg">
<path d="M14.2 21.84V-1.90735e-06H8.6L1.28 2.64L2.84 8.12L7.8 6.76V21.84H1.49012e-08V28H21.6V21.84H14.2Z" fill="url(#paint0_linear_1125_6966)"/>
<path d="M14.2 21.84H12.7V23.34H14.2V21.84ZM14.2 -1.90735e-06H15.7V-1.5H14.2V-1.90735e-06ZM8.6 -1.90735e-06V-1.5H8.33778L8.0911 -1.41104L8.6 -1.90735e-06ZM1.28 2.64L0.771102 1.22896L-0.546047 1.704L-0.162682 3.05069L1.28 2.64ZM2.84 8.12L1.39732 8.53069L1.80404 9.95942L3.23665 9.56661L2.84 8.12ZM7.8 6.76H9.3V4.79334L7.40335 5.31339L7.8 6.76ZM7.8 21.84V23.34H9.3V21.84H7.8ZM0 21.84V20.34H-1.5V21.84H0ZM0 28H-1.5V29.5H0V28ZM21.6 28V29.5H23.1V28H21.6ZM21.6 21.84H23.1V20.34H21.6V21.84ZM15.7 21.84V-1.90735e-06H12.7V21.84H15.7ZM14.2 -1.5H8.6V1.5H14.2V-1.5ZM8.0911 -1.41104L0.771102 1.22896L1.7889 4.05104L9.1089 1.41103L8.0911 -1.41104ZM-0.162682 3.05069L1.39732 8.53069L4.28268 7.70931L2.72268 2.22931L-0.162682 3.05069ZM3.23665 9.56661L8.19665 8.20661L7.40335 5.31339L2.44335 6.67339L3.23665 9.56661ZM6.3 6.76V21.84H9.3V6.76H6.3ZM7.8 20.34H0V23.34H7.8V20.34ZM-1.5 21.84V28H1.5V21.84H-1.5ZM0 29.5H21.6V26.5H0V29.5ZM23.1 28V21.84H20.1V28H23.1ZM21.6 20.34H14.2V23.34H21.6V20.34Z" fill="url(#paint1_linear_1125_6966)"/>
<defs>
<linearGradient id="paint0_linear_1125_6966" x1="-1" y1="14.5" x2="23" y2="14.5" gradientUnits="userSpaceOnUse">
<stop stop-color="#DA4533"/>
<stop offset="1" stop-color="#DA4533" stop-opacity="0"/>
</linearGradient>
<linearGradient id="paint1_linear_1125_6966" x1="-1" y1="14.5" x2="23" y2="14.5" gradientUnits="userSpaceOnUse">
<stop stop-color="#DA4533"/>
<stop offset="1" stop-color="#DA4533" stop-opacity="0"/>
</linearGradient>
</defs>
</svg>
