<svg width="31" height="39" viewBox="0 0 31 39" fill="none" xmlns="http://www.w3.org/2000/svg">
<path d="M19.9 30.53H18.4V32.03H19.9V30.53ZM19.9 0.499997H21.4V-1H19.9V0.499997ZM12.2 0.499997V-1H11.9378L11.6911 -0.911038L12.2 0.499997ZM2.135 4.13L1.6261 2.71896L0.308954 3.194L0.692318 4.54069L2.135 4.13ZM4.28 11.665L2.83732 12.0757L3.24404 13.5044L4.67665 13.1116L4.28 11.665ZM11.1 9.795H12.6V7.82834L10.7034 8.34839L11.1 9.795ZM11.1 30.53V32.03H12.6V30.53H11.1ZM0.375 30.53V29.03H-1.125V30.53H0.375ZM0.375 39H-1.125V40.5H0.375V39ZM30.075 39V40.5H31.575V39H30.075ZM30.075 30.53H31.575V29.03H30.075V30.53ZM21.4 30.53V0.499997H18.4V30.53H21.4ZM19.9 -1H12.2V2H19.9V-1ZM11.6911 -0.911038L1.6261 2.71896L2.6439 5.54104L12.7089 1.91103L11.6911 -0.911038ZM0.692318 4.54069L2.83732 12.0757L5.72268 11.2543L3.57768 3.71931L0.692318 4.54069ZM4.67665 13.1116L11.4967 11.2416L10.7034 8.34839L3.88335 10.2184L4.67665 13.1116ZM9.6 9.795V30.53H12.6V9.795H9.6ZM11.1 29.03H0.375V32.03H11.1V29.03ZM-1.125 30.53V39H1.875V30.53H-1.125ZM0.375 40.5H30.075V37.5H0.375V40.5ZM31.575 39V30.53H28.575V39H31.575ZM30.075 29.03H19.9V32.03H30.075V29.03Z" fill="url(#paint0_linear_7371_2875)"/>
<defs>
<linearGradient id="paint0_linear_7371_2875" x1="-1" y1="20.5" x2="31" y2="20.5" gradientUnits="userSpaceOnUse">
<stop stop-color="#DA4533"/>
<stop offset="1" stop-color="#DA4533" stop-opacity="0"/>
</linearGradient>
</defs>
</svg>
