<svg width="24" height="33" viewBox="0 0 24 33" fill="none" xmlns="http://www.w3.org/2000/svg">
<path d="M0.6 33H-0.9V34.5H0.6V33ZM23.55 33V34.5H25.05V33H23.55ZM23.55 26.07H25.05V24.57H23.55V26.07ZM12.12 26.07L11.106 24.9647L8.26617 27.57H12.12V26.07ZM17.025 21.57L16.0114 20.4643L16.011 20.4647L17.025 21.57ZM0.6 7.98L-0.746684 7.31936L-1.36054 8.57068L-0.157595 9.27462L0.6 7.98ZM6.675 11.535L5.91741 12.8296L7.22005 13.5919L7.97428 12.2846L6.675 11.535ZM12.12 17.205L11.1075 16.0983L11.1056 16.1L12.12 17.205ZM0.6 27.78L-0.414368 26.675L-0.9 27.1208V27.78H0.6ZM0.6 34.5H23.55V31.5H0.6V34.5ZM25.05 33V26.07H22.05V33H25.05ZM23.55 24.57H12.12V27.57H23.55V24.57ZM13.134 27.1753L18.039 22.6753L16.011 20.4647L11.106 24.9647L13.134 27.1753ZM18.0386 22.6757C21.873 19.1609 24.6 15.7632 24.6 10.995H21.6C21.6 14.4168 19.737 17.0491 16.0114 20.4643L18.0386 22.6757ZM24.6 10.995C24.6 4.35606 19.3746 -0.630002 11.985 -0.630002V2.37C17.9154 2.37 21.6 6.20394 21.6 10.995H24.6ZM11.985 -0.630002C6.62903 -0.630002 1.85884 2.00809 -0.746684 7.31936L1.94668 8.64063C4.02116 4.4119 7.71097 2.37 11.985 2.37V-0.630002ZM-0.157595 9.27462L5.91741 12.8296L7.4326 10.2404L1.35759 6.68537L-0.157595 9.27462ZM7.97428 12.2846C8.59987 11.2002 9.18476 10.487 9.78778 10.0418C10.3549 9.62306 11.0067 9.39 11.895 9.39V6.39C10.3983 6.39 9.11507 6.80944 8.00597 7.62823C6.93274 8.42055 6.10013 9.52977 5.37572 10.7854L7.97428 12.2846ZM11.895 9.39C13.0217 9.39 13.5967 9.75136 13.9022 10.0868C14.2383 10.4559 14.4 10.9629 14.4 11.445H17.4C17.4 10.3521 17.0442 9.0816 16.1203 8.06697C15.1658 7.01864 13.7383 6.39 11.895 6.39V9.39ZM14.4 11.445C14.4 12.0275 14.1641 12.6794 13.586 13.4821C13.0018 14.2931 12.1556 15.1394 11.1075 16.0983L13.1325 18.3117C14.1994 17.3356 15.2432 16.3144 16.0203 15.2354C16.8034 14.1481 17.4 12.8875 17.4 11.445H14.4ZM11.1056 16.1L-0.414368 26.675L1.61437 28.885L13.1344 18.31L11.1056 16.1ZM-0.9 27.78V33H2.1V27.78H-0.9Z" fill="url(#paint0_linear_7438_479)" fill-opacity="0.5"/>
<defs>
<linearGradient id="paint0_linear_7438_479" x1="-0.75" y1="17.5" x2="31.0461" y2="17.5" gradientUnits="userSpaceOnUse">
<stop stop-color="white"/>
<stop offset="1" stop-color="white" stop-opacity="0"/>
</linearGradient>
</defs>
</svg>
