<svg width="30" height="40" viewBox="0 0 30 40" fill="none" xmlns="http://www.w3.org/2000/svg">
<path d="M20.945 15.515L19.8078 14.5368L18.3452 16.2373L20.4754 16.9396L20.945 15.515ZM27.71 7.65L28.8472 8.62815L29.21 8.20635V7.65H27.71ZM27.71 0.499997H29.21V-1H27.71V0.499997ZM1.31 0.499997V-1H-0.19V0.499997H1.31ZM1.31 8.75H-0.19V10.25H1.31V8.75ZM16.6 8.75L17.734 9.73182L19.8827 7.25H16.6V8.75ZM9.505 16.945L8.37097 15.9632L7.6176 16.8334L8.26312 17.7863L9.505 16.945ZM12.97 22.06L11.7281 22.9013L12.1744 23.56H12.97V22.06ZM7.69 26.295L9.09449 25.7683L8.47185 24.1079L6.9377 24.9973L7.69 26.295ZM0.1 30.695L-0.652296 29.3973L-1.79867 30.0619L-1.28061 31.2815L0.1 30.695ZM22.0822 16.4931L28.8472 8.62815L26.5728 6.67185L19.8078 14.5368L22.0822 16.4931ZM29.21 7.65V0.499997H26.21V7.65H29.21ZM27.71 -1H1.31V2H27.71V-1ZM-0.19 0.499997V8.75H2.81V0.499997H-0.19ZM1.31 10.25H16.6V7.25H1.31V10.25ZM15.466 7.76818L8.37097 15.9632L10.639 17.9268L17.734 9.73182L15.466 7.76818ZM8.26312 17.7863L11.7281 22.9013L14.2119 21.2187L10.7469 16.1037L8.26312 17.7863ZM12.97 23.56H14.675V20.56H12.97V23.56ZM14.675 23.56C16.5576 23.56 17.6858 23.9957 18.3168 24.5127C18.9079 24.9972 19.225 25.6839 19.225 26.625H22.225C22.225 24.9261 21.6071 23.3303 20.2182 22.1923C18.8692 21.0868 16.9724 20.56 14.675 20.56V23.56ZM19.225 26.625C19.225 27.5661 18.9079 28.2528 18.3168 28.7373C17.6858 29.2543 16.5576 29.69 14.675 29.69V32.69C16.9724 32.69 18.8692 32.1632 20.2182 31.0577C21.6071 29.9197 22.225 28.3239 22.225 26.625H19.225ZM14.675 29.69C13.1197 29.69 11.987 29.3056 11.1392 28.6863C10.2831 28.0609 9.59653 27.1071 9.09449 25.7683L6.28551 26.8217C6.93847 28.5629 7.92936 30.0566 9.36953 31.1087C10.818 32.1669 12.6003 32.69 14.675 32.69V29.69ZM6.9377 24.9973L-0.652296 29.3973L0.852296 31.9927L8.4423 27.5927L6.9377 24.9973ZM-1.28061 31.2815C0.154593 34.6601 2.34086 37.1895 5.1933 38.8579C8.02931 40.5167 11.4292 41.27 15.225 41.27V38.27C11.8158 38.27 8.97319 37.5933 6.70795 36.2683C4.45914 34.953 2.68541 32.9449 1.48061 30.1085L-1.28061 31.2815ZM15.225 41.27C19.4945 41.27 23.4419 40.0182 26.3463 37.5088C29.2776 34.9761 31.025 31.2639 31.025 26.625H28.025C28.025 30.4561 26.6099 33.3164 24.385 35.2387C22.1331 37.1843 18.9305 38.27 15.225 38.27V41.27ZM31.025 26.625C31.025 20.1162 26.8888 15.8951 21.4146 14.0904L20.4754 16.9396C25.0112 18.4349 28.025 21.6938 28.025 26.625H31.025Z" fill="url(#paint0_linear_7371_2853)"/>
<defs>
<linearGradient id="paint0_linear_7371_2853" x1="-1" y1="20.5" x2="31" y2="20.5" gradientUnits="userSpaceOnUse">
<stop stop-color="#DA4533"/>
<stop offset="1" stop-color="#DA4533" stop-opacity="0"/>
</linearGradient>
</defs>
</svg>
