<svg width="25" height="33" viewBox="0 0 25 33" fill="none" xmlns="http://www.w3.org/2000/svg">
<path d="M17.455 12.785L16.3178 11.8068L14.8552 13.5073L16.9854 14.2096L17.455 12.785ZM22.99 6.35L24.1272 7.32815L24.49 6.90635V6.35H22.99ZM22.99 0.499998H24.49V-1H22.99V0.499998ZM1.39 0.499998V-1H-0.11V0.499998H1.39ZM1.39 7.25H-0.11V8.75H1.39V7.25ZM13.9 7.25L15.034 8.23182L17.1827 5.75H13.9V7.25ZM8.095 13.955L6.96097 12.9732L6.2076 13.8434L6.85312 14.7963L8.095 13.955ZM10.93 18.14L9.68812 18.9813L10.1344 19.64H10.93V18.14ZM6.61 21.605L8.01449 21.0783L7.39185 19.4179L5.8577 20.3073L6.61 21.605ZM0.4 25.205L-0.352296 23.9073L-1.49867 24.5719L-0.980606 25.7915L0.4 25.205ZM18.5922 13.7631L24.1272 7.32815L21.8528 5.37185L16.3178 11.8068L18.5922 13.7631ZM24.49 6.35V0.499998H21.49V6.35H24.49ZM22.99 -1H1.39V2H22.99V-1ZM-0.11 0.499998V7.25H2.89V0.499998H-0.11ZM1.39 8.75H13.9V5.75H1.39V8.75ZM12.766 6.26818L6.96097 12.9732L9.22904 14.9368L15.034 8.23182L12.766 6.26818ZM6.85312 14.7963L9.68812 18.9813L12.1719 17.2987L9.33688 13.1137L6.85312 14.7963ZM10.93 19.64H12.325V16.64H10.93V19.64ZM12.325 19.64C13.8276 19.64 14.6808 19.9882 15.1318 20.3577C15.5429 20.6947 15.775 21.1739 15.775 21.875H18.775C18.775 20.4161 18.2421 19.0278 17.0332 18.0373C15.8642 17.0793 14.2424 16.64 12.325 16.64V19.64ZM15.775 21.875C15.775 22.5761 15.5429 23.0553 15.1318 23.3923C14.6808 23.7618 13.8276 24.11 12.325 24.11V27.11C14.2424 27.11 15.8642 26.6707 17.0332 25.7127C18.2421 24.7222 18.775 23.3339 18.775 21.875H15.775ZM12.325 24.11C11.0997 24.11 10.232 23.8081 9.59297 23.3413C8.94564 22.8684 8.41153 22.1371 8.01449 21.0783L5.20551 22.1317C5.75347 23.5929 6.59186 24.8641 7.82328 25.7637C9.06301 26.6694 10.5803 27.11 12.325 27.11V24.11ZM5.8577 20.3073L-0.352296 23.9073L1.1523 26.5027L7.3623 22.9027L5.8577 20.3073ZM-0.980606 25.7915C0.214593 28.6051 2.04086 30.722 4.42955 32.1192C6.80181 33.5067 9.63416 34.13 12.775 34.13V31.13C10.0208 31.13 7.74569 30.5833 5.9442 29.5296C4.15914 28.4855 2.74541 26.8899 1.78061 24.6185L-0.980606 25.7915ZM12.775 34.13C16.3195 34.13 19.6169 33.0907 22.0525 30.9863C24.5151 28.8586 25.975 25.7439 25.975 21.875H22.975C22.975 24.9361 21.8474 27.1989 20.0912 28.7162C18.3081 30.2568 15.7556 31.13 12.775 31.13V34.13ZM25.975 21.875C25.975 16.4062 22.4888 12.8651 17.9246 11.3604L16.9854 14.2096C20.6112 15.4049 22.975 17.9838 22.975 21.875H25.975Z" fill="url(#paint0_linear_7438_1834)" fill-opacity="0.5"/>
<defs>
<linearGradient id="paint0_linear_7438_1834" x1="-0.5" y1="16.5" x2="31.2961" y2="16.5" gradientUnits="userSpaceOnUse">
<stop stop-color="white"/>
<stop offset="1" stop-color="white" stop-opacity="0"/>
</linearGradient>
</defs>
</svg>
