<svg width="29" height="40" viewBox="0 0 29 40" fill="none" xmlns="http://www.w3.org/2000/svg">
<path d="M0.65 40H-0.85V41.5H0.65V40ZM28.7 40V41.5H30.2V40H28.7ZM28.7 31.53H30.2V30.03H28.7V31.53ZM14.73 31.53L13.716 30.4247L10.8762 33.03H14.73V31.53ZM20.725 26.03L19.7114 24.9243L19.711 24.9247L20.725 26.03ZM0.65 9.42L-0.696684 8.75936L-1.31054 10.0107L-0.107595 10.7146L0.65 9.42ZM8.075 13.765L7.31741 15.0596L8.62005 15.8219L9.37428 14.5146L8.075 13.765ZM14.73 20.695L13.7175 19.5883L13.7156 19.59L14.73 20.695ZM0.65 33.62L-0.364368 32.515L-0.85 32.9608V33.62H0.65ZM0.65 41.5H28.7V38.5H0.65V41.5ZM30.2 40V31.53H27.2V40H30.2ZM28.7 30.03H14.73V33.03H28.7V30.03ZM15.744 32.6353L21.739 27.1353L19.711 24.9247L13.716 30.4247L15.744 32.6353ZM21.7386 27.1357C26.413 22.8509 29.65 18.7832 29.65 13.105H26.65C26.65 17.4368 24.277 20.7391 19.7114 24.9243L21.7386 27.1357ZM29.65 13.105C29.65 5.19606 23.4346 -0.770002 14.565 -0.770002V2.23C21.9754 2.23 26.65 7.04394 26.65 13.105H29.65ZM14.565 -0.770002C8.13903 -0.770002 2.42884 2.38809 -0.696684 8.75936L1.99668 10.0806C4.59116 4.7919 9.22097 2.23 14.565 2.23V-0.770002ZM-0.107595 10.7146L7.31741 15.0596L8.83259 12.4704L1.40759 8.12537L-0.107595 10.7146ZM9.37428 14.5146C10.1499 13.1702 10.8923 12.2544 11.6815 11.6718C12.4349 11.1156 13.3017 10.81 14.455 10.81V7.81C12.6933 7.81 11.1951 8.30194 9.89972 9.25823C8.64024 10.188 7.65013 11.4998 6.77572 13.0154L9.37428 14.5146ZM14.455 10.81C15.9117 10.81 16.7092 11.2814 17.1547 11.7705C17.6308 12.2934 17.85 12.9979 17.85 13.655H20.85C20.85 12.3871 20.4367 10.9191 19.3728 9.75072C18.2783 8.54864 16.6283 7.81 14.455 7.81V10.81ZM17.85 13.655C17.85 14.4625 17.5216 15.3269 16.7922 16.3396C16.0568 17.3606 15.0006 18.4144 13.7175 19.5883L15.7425 21.8017C17.0444 20.6106 18.2982 19.3819 19.2265 18.0929C20.1609 16.7956 20.85 15.3225 20.85 13.655H17.85ZM13.7156 19.59L-0.364368 32.515L1.66437 34.725L15.7444 21.8L13.7156 19.59ZM-0.85 33.62V40H2.15V33.62H-0.85Z" fill="url(#paint0_linear_7371_620)"/>
<defs>
<linearGradient id="paint0_linear_7371_620" x1="-1" y1="21.5" x2="31" y2="21.5" gradientUnits="userSpaceOnUse">
<stop stop-color="#DA4533"/>
<stop offset="1" stop-color="#DA4533" stop-opacity="0"/>
</linearGradient>
</defs>
</svg>
