<svg width="27" height="32" viewBox="0 0 27 32" fill="none" xmlns="http://www.w3.org/2000/svg">
<path d="M26.175 20.3H27.675V18.8H26.175V20.3ZM23.025 20.3H21.525V21.8H23.025V20.3ZM23.025 13.55H24.525V12.05H23.025V13.55ZM15.735 13.55V12.05H14.235V13.55H15.735ZM15.735 20.3V21.8H17.235V20.3H15.735ZM8.715 20.3L7.37703 19.6219L6.27312 21.8H8.715V20.3ZM18.75 0.499998L20.088 1.17811L21.1919 -1H18.75V0.499998ZM11.01 0.499998V-1H10.0886L9.67203 -0.178111L11.01 0.499998ZM0.975 20.3L-0.362972 19.6219L-0.525 19.9416V20.3H0.975ZM0.975 26.96H-0.525V28.46H0.975V26.96ZM15.735 26.96H17.235V25.46H15.735V26.96ZM15.735 32H14.235V33.5H15.735V32ZM23.025 32V33.5H24.525V32H23.025ZM23.025 26.96V25.46H21.525V26.96H23.025ZM26.175 26.96V28.46H27.675V26.96H26.175ZM26.175 18.8H23.025V21.8H26.175V18.8ZM24.525 20.3V13.55H21.525V20.3H24.525ZM23.025 12.05H15.735V15.05H23.025V12.05ZM14.235 13.55V20.3H17.235V13.55H14.235ZM15.735 18.8H8.715V21.8H15.735V18.8ZM10.053 20.9781L20.088 1.17811L17.412 -0.178111L7.37703 19.6219L10.053 20.9781ZM18.75 -1H11.01V2H18.75V-1ZM9.67203 -0.178111L-0.362972 19.6219L2.31297 20.9781L12.348 1.17811L9.67203 -0.178111ZM-0.525 20.3V26.96H2.475V20.3H-0.525ZM0.975 28.46H15.735V25.46H0.975V28.46ZM14.235 26.96V32H17.235V26.96H14.235ZM15.735 33.5H23.025V30.5H15.735V33.5ZM24.525 32V26.96H21.525V32H24.525ZM23.025 28.46H26.175V25.46H23.025V28.46ZM27.675 26.96V20.3H24.675V26.96H27.675Z" fill="url(#paint0_linear_7438_1838)" fill-opacity="0.5"/>
<defs>
<linearGradient id="paint0_linear_7438_1838" x1="0.75" y1="16.5" x2="32.5461" y2="16.5" gradientUnits="userSpaceOnUse">
<stop stop-color="white"/>
<stop offset="1" stop-color="white" stop-opacity="0"/>
</linearGradient>
</defs>
</svg>
