<svg width="25" height="33" viewBox="0 0 25 33" fill="none" xmlns="http://www.w3.org/2000/svg">
<path d="M10.26 11.57L8.76397 11.4609L8.64664 13.07H10.26V11.57ZM10.575 7.25V5.75H9.18039L9.07897 7.14091L10.575 7.25ZM23.4 7.25V8.75H24.9V7.25H23.4ZM23.4 0.499998H24.9V-1H23.4V0.499998ZM4.005 0.499998V-1H2.60931L2.50889 0.39207L4.005 0.499998ZM2.7 18.59L1.20389 18.4821L1.08789 20.09H2.7V18.59ZM7.11 21.605L8.51449 21.0783L7.89185 19.4179L6.3577 20.3073L7.11 21.605ZM0.9 25.205L0.147704 23.9073L-0.998666 24.5719L-0.480606 25.7915L0.9 25.205ZM13.5 10.07H10.26V13.07H13.5V10.07ZM11.756 11.6791L12.071 7.35909L9.07897 7.14091L8.76397 11.4609L11.756 11.6791ZM10.575 8.75H23.4V5.75H10.575V8.75ZM24.9 7.25V0.499998H21.9V7.25H24.9ZM23.4 -1H4.005V2H23.4V-1ZM2.50889 0.39207L1.20389 18.4821L4.19611 18.6979L5.50111 0.607926L2.50889 0.39207ZM2.7 20.09H13.05V17.09H2.7V20.09ZM13.05 20.09C14.5531 20.09 15.3392 20.4382 15.728 20.7661C16.0815 21.0642 16.275 21.4861 16.275 22.1H19.275C19.275 20.7789 18.816 19.4458 17.662 18.4727C16.5433 17.5293 14.9669 17.09 13.05 17.09V20.09ZM16.275 22.1C16.275 22.7139 16.0815 23.1358 15.728 23.4339C15.3392 23.7618 14.5531 24.11 13.05 24.11V27.11C14.9669 27.11 16.5433 26.6707 17.662 25.7273C18.816 24.7542 19.275 23.4211 19.275 22.1H16.275ZM13.05 24.11C11.6897 24.11 10.7638 23.7969 10.1041 23.329C9.44099 22.8587 8.91089 22.1354 8.51449 21.0783L5.70551 22.1317C6.25411 23.5946 7.09651 24.8738 8.36843 25.776C9.64374 26.6805 11.2153 27.11 13.05 27.11V24.11ZM6.3577 20.3073L0.147704 23.9073L1.6523 26.5027L7.8623 22.9027L6.3577 20.3073ZM-0.480606 25.7915C0.714593 28.6051 2.54086 30.722 4.92955 32.1192C7.30181 33.5067 10.1342 34.13 13.275 34.13V31.13C10.5208 31.13 8.24569 30.5833 6.4442 29.5296C4.65914 28.4855 3.24541 26.8899 2.28061 24.6185L-0.480606 25.7915ZM13.275 34.13C16.6948 34.13 19.9815 33.154 22.443 31.1201C24.9393 29.0574 26.475 25.994 26.475 22.1H23.475C23.475 25.136 22.3107 27.3377 20.532 28.8074C18.7185 30.306 16.1552 31.13 13.275 31.13V34.13ZM26.475 22.1C26.475 18.2497 25.0842 15.1824 22.6626 13.0991C20.2717 11.0423 17.0242 10.07 13.5 10.07V13.07C16.5008 13.07 18.9908 13.8977 20.7061 15.3734C22.3908 16.8226 23.475 19.0203 23.475 22.1H26.475Z" fill="url(#paint0_linear_7438_4166)" fill-opacity="0.5"/>
<defs>
<linearGradient id="paint0_linear_7438_4166" x1="-3.01748e-07" y1="16.5" x2="31.7961" y2="16.5" gradientUnits="userSpaceOnUse">
<stop stop-color="white"/>
<stop offset="1" stop-color="white" stop-opacity="0"/>
</linearGradient>
</defs>
</svg>
