<svg width="163" height="154" viewBox="0 0 163 154" fill="none" xmlns="http://www.w3.org/2000/svg">
<path d="M83.2401 153.847C83.1841 153.847 83.1281 153.847 83.0721 153.828L10.9254 138.737C10.5521 138.658 10.2721 138.322 10.2347 137.906L7.97606 98.1729L0.752069 64.7286C0.733402 64.6495 0.733398 64.5507 0.733398 64.4716L3.62674 13.8207C3.6454 13.4053 3.92539 13.0691 4.29872 12.99L60.0001 0.885978C60.0747 0.8662 60.1307 0.866211 60.2054 0.866211L120.237 2.90332C120.648 2.9231 121.003 3.23954 121.059 3.67465C121.115 4.10976 120.872 4.5251 120.48 4.66354L116.299 6.06778L146.669 7.68954C147.117 7.70932 147.472 8.10487 147.472 8.57953V46.1969L152.605 40.3624C152.811 40.1251 153.128 40.0262 153.445 40.1053C153.744 40.1844 153.987 40.4415 154.061 40.758L162.48 76.9513C162.517 77.1096 162.517 77.2678 162.461 77.426L152.885 110.633C152.867 110.692 152.848 110.752 152.811 110.811L136.515 141.13C136.347 141.466 135.992 141.644 135.637 141.565L98.4161 134.88L83.9121 153.491C83.7254 153.729 83.4827 153.847 83.2401 153.847ZM11.8774 137.096L82.8854 151.949L97.3707 133.338C97.5574 133.081 97.8747 132.982 98.1734 133.021L135.283 139.686L151.243 110L160.725 77.1096L152.755 42.7753L147.229 49.0646C146.987 49.3415 146.632 49.4206 146.296 49.2822C145.979 49.1438 145.755 48.8075 145.755 48.4515V9.39043L111.464 7.55111C111.053 7.53133 110.717 7.19509 110.661 6.75998C110.605 6.32487 110.848 5.90955 111.24 5.79089L115.179 4.48555L60.2241 2.60667L5.2694 14.5524L2.4134 64.3924L9.63739 97.8564L11.8774 137.096Z" fill="white"/>
<path d="M83.2401 153.847C82.7734 153.847 82.3814 153.452 82.3814 152.938V109.703C82.3814 109.446 82.4934 109.189 82.6801 109.031C82.8667 108.853 83.1094 108.774 83.3521 108.813L124.512 114.984V69.1193L126.603 34.4489C126.603 34.3302 126.64 34.1918 126.696 34.0929L137.149 12.7724C137.224 12.5944 137.355 12.4758 137.523 12.3769L146.221 7.76866C146.651 7.5511 147.155 7.7291 147.36 8.16421C147.565 8.59932 147.397 9.1531 146.987 9.37066L138.549 13.8404L128.301 34.7257L126.211 69.1589V115.993C126.211 116.25 126.099 116.507 125.912 116.665C125.725 116.843 125.483 116.922 125.24 116.883L84.0801 110.712V152.918C84.0801 153.432 83.7067 153.847 83.2401 153.847Z" fill="white"/>
<path d="M127.461 35.3982C127.368 35.3982 127.275 35.3785 127.181 35.3389L81.4481 18.33L40.6614 16.2929L4.44806 14.7502C3.9814 14.7304 3.60807 14.3151 3.62674 13.8207C3.6454 13.346 4.01874 12.9504 4.4854 12.9504C4.50407 12.9504 4.50406 12.9504 4.52273 12.9504L40.7361 14.4931L81.6534 16.55C81.7281 16.55 81.8214 16.5698 81.8961 16.6093L127.76 33.6578C128.208 33.816 128.432 34.3302 128.283 34.8049C128.133 35.1609 127.816 35.3982 127.461 35.3982Z" fill="white"/>
<path d="M135.749 141.605C135.264 141.605 134.891 141.19 134.891 140.695L135.264 103.276L126.043 116.546C125.763 116.942 125.24 117.041 124.848 116.744C124.475 116.448 124.381 115.894 124.661 115.478L135.451 99.9529C135.675 99.6365 136.048 99.498 136.403 99.6365C136.757 99.7551 136.981 100.111 136.981 100.507L136.571 140.715C136.589 141.209 136.216 141.605 135.749 141.605Z" fill="white"/>
<path d="M83.2401 110.158C83.0161 110.158 82.8107 109.96 82.8107 109.723L81.1867 17.4598C81.1867 17.262 81.2987 17.084 81.4667 17.0247L109.112 7.0962L44.8614 5.53377C44.6187 5.53377 44.4321 5.31622 44.4507 5.07889C44.4507 4.84155 44.6374 4.64377 44.8801 4.64377L111.52 6.26554C111.725 6.26554 111.893 6.42376 111.931 6.64132C111.968 6.85887 111.837 7.05665 111.651 7.13576L82.0267 17.7762L83.6507 109.723C83.6694 109.941 83.4827 110.158 83.2401 110.158Z" fill="white"/>
<path d="M44.8801 145.363C44.6561 145.363 44.4694 145.165 44.4507 144.928L43.4054 103.572L36.7787 68.7436C36.7787 68.704 36.7601 68.6644 36.7787 68.6051L41.4081 15.3831C41.4267 15.1853 41.5574 15.0271 41.7254 14.9875L88.3174 2.25065C88.5414 2.19132 88.784 2.32977 88.84 2.5671C88.8961 2.80444 88.7654 3.06155 88.5414 3.12088L42.2481 15.7786L37.6561 68.6051L44.2641 103.454L45.3094 144.888C45.3094 145.145 45.1227 145.363 44.8801 145.363Z" fill="white"/>
<path d="M136.16 100.942C136.085 100.942 136.011 100.922 135.955 100.882C135.824 100.803 135.731 100.645 135.731 100.487L137.485 13.6031L27.2401 9.35086C26.9974 9.35086 26.8294 9.13333 26.8294 8.87622C26.8294 8.63888 27.0347 8.4411 27.2587 8.4411H27.2774L137.933 12.7131C138.176 12.7131 138.344 12.9307 138.344 13.168L136.589 99.6562L154.733 87.4138L161.267 76.9118C161.397 76.714 161.659 76.6547 161.864 76.7733C162.069 76.9118 162.107 77.1887 161.995 77.4062L155.405 87.9873C155.368 88.0467 155.331 88.0862 155.275 88.1258L136.384 100.863C136.309 100.922 136.235 100.942 136.16 100.942Z" fill="white"/>
<path d="M98.0427 134.386C98.0241 134.386 98.0054 134.386 97.9867 134.386C97.8747 134.366 97.7627 134.287 97.6881 134.188L82.9787 110.138L8.76007 98.5684C8.53607 98.5289 8.36806 98.3113 8.4054 98.0542C8.44273 97.7971 8.64807 97.6389 8.89073 97.6784L83.2961 109.268C83.4081 109.288 83.5201 109.367 83.5947 109.466L98.1361 133.259L119.024 114.766C119.192 114.608 119.472 114.628 119.621 114.826C119.771 115.024 119.752 115.3 119.565 115.459L98.3041 134.267C98.2294 134.346 98.1361 134.386 98.0427 134.386Z" fill="white"/>
<path d="M144.467 124.932C144.429 124.932 144.392 124.932 144.336 124.912C144.112 124.833 143.981 124.596 144.056 124.359L154.584 87.7698L146.352 49.3613L125.651 69.4753C125.557 69.5545 125.427 69.594 125.315 69.594L82.3814 64.9858L37.2267 69.1391L1.51739 64.9858C1.27472 64.966 1.10673 64.7287 1.14406 64.4913C1.16273 64.2342 1.38673 64.0562 1.61073 64.0958L37.2454 68.2491L82.3814 64.0958L125.203 68.6842L146.315 48.1747C146.427 48.0758 146.576 48.0164 146.725 48.0758C146.875 48.1153 146.987 48.2538 147.005 48.412L155.424 87.6907C155.443 87.7698 155.443 87.8489 155.424 87.928L144.859 124.636C144.821 124.794 144.653 124.932 144.467 124.932Z" fill="white"/>
<path d="M129.104 111.088C129.085 111.088 129.067 111.088 129.029 111.088C128.787 111.048 128.637 110.811 128.675 110.574L135.619 64.1947L125.165 100.645C125.091 100.882 124.867 101.001 124.643 100.942C124.419 100.863 124.288 100.625 124.363 100.388L136.608 57.6877C136.664 57.4702 136.888 57.312 137.112 57.3713C137.336 57.4307 137.467 57.6482 137.429 57.8855L129.533 110.712C129.496 110.93 129.328 111.088 129.104 111.088Z" fill="white"/>
<path d="M125.371 81.2035C125.296 81.2035 125.24 81.1837 125.165 81.1442C124.96 81.0255 124.885 80.7486 124.997 80.5311L136.645 57.5691C136.757 57.3515 137.019 57.2724 137.224 57.3911C137.429 57.5098 137.504 57.7866 137.392 58.0042L125.744 80.9662C125.669 81.1244 125.52 81.2035 125.371 81.2035Z" fill="white"/>
<path d="M98.0427 134.386C98.0054 134.386 97.9494 134.386 97.9121 134.366L83.1094 129.244C82.8854 129.165 82.7734 128.908 82.8294 128.67C82.9041 128.433 83.1467 128.314 83.3707 128.374L96.4374 132.883L82.9414 118.999C82.7734 118.821 82.7734 118.544 82.9414 118.366C83.1094 118.188 83.3707 118.188 83.5387 118.366L98.3414 133.595C98.4907 133.733 98.5094 133.971 98.4161 134.149C98.3227 134.307 98.1921 134.386 98.0427 134.386Z" fill="white"/>
<path d="M34.1281 102.504C34.1094 102.504 34.1094 102.504 34.0907 102.504C33.8481 102.484 33.6801 102.267 33.7174 102.01L36.5547 71.4729L24.5707 100.685C24.4774 100.922 24.2161 101.021 24.0107 100.922C23.7867 100.823 23.6934 100.566 23.7867 100.329L36.8534 68.4864C36.9467 68.2887 37.1521 68.1898 37.3574 68.2293C37.5627 68.2886 37.6934 68.4864 37.6747 68.704L34.5761 102.089C34.5201 102.326 34.3334 102.504 34.1281 102.504Z" fill="white"/>
<path d="M14.1174 99.3793C14.0241 99.3793 13.9307 99.3398 13.8561 99.2804C13.6694 99.1222 13.6507 98.8453 13.8001 98.6475L35.0054 70.8598L7.52807 91.2309C7.3414 91.3693 7.0614 91.3298 6.93073 91.1122C6.80007 90.9144 6.8374 90.6178 7.04273 90.4793L36.9841 68.2886C37.1707 68.17 37.3947 68.1898 37.5441 68.348C37.6934 68.5062 37.6934 68.7633 37.5627 68.9413L14.4721 99.2211C14.3601 99.32 14.2481 99.3793 14.1174 99.3793Z" fill="white"/>
<path d="M4.89605 80.3333C4.70938 80.3333 4.56006 80.2147 4.4854 80.0169C4.41073 79.7796 4.54139 79.5224 4.74673 79.4433L33.9041 69.3171L2.95473 71.3542C2.71206 71.3344 2.52539 71.1762 2.50672 70.9389C2.48805 70.6818 2.67472 70.484 2.89872 70.4642L37.1521 68.2293C37.3201 68.2293 37.5627 68.3678 37.6001 68.5853C37.6374 68.8029 37.5254 69.0204 37.3201 69.0995L5.00806 80.3135C4.98939 80.3135 4.93338 80.3333 4.89605 80.3333Z" fill="white"/>
<path d="M83.2401 142.337C83.0907 142.337 82.9414 142.238 82.8667 142.08C82.7547 141.862 82.8481 141.585 83.0534 141.466L97.8561 133.516C98.0614 133.397 98.3227 133.496 98.4347 133.714C98.5467 133.931 98.4534 134.208 98.2481 134.327L83.4454 142.277C83.3707 142.317 83.2961 142.337 83.2401 142.337Z" fill="white"/>
</svg>
