<svg width="155" height="175" viewBox="0 0 155 175" fill="none" xmlns="http://www.w3.org/2000/svg">
<path d="M56.8542 128.491C56.634 128.491 56.3954 128.393 56.2486 128.217C56.0283 127.963 55.9549 127.592 56.0834 127.279L82.6749 58.8147C82.7484 58.6387 82.8585 58.5018 83.0053 58.404L119.562 33.4511C119.819 33.2751 120.149 33.2555 120.424 33.4315C120.7 33.588 120.865 33.9009 120.846 34.2333L119.268 105.728C119.268 106.1 119.03 106.432 118.699 106.55L57.1478 128.472C57.0377 128.491 56.9459 128.491 56.8542 128.491ZM84.1064 59.7338L58.3223 126.144L117.598 105.044L119.121 35.8369L84.1064 59.7338Z" fill="white"/>
<path d="M55.5879 174.427H55.5696C55.1108 174.408 54.7437 173.997 54.7621 173.508L56.01 127.983L24.3167 95.8724C24.1699 95.716 24.0781 95.5204 24.0598 95.3053L18.5176 28.0342C18.4992 27.7213 18.6277 27.4084 18.8663 27.2324C19.1048 27.0564 19.4168 27.0173 19.6921 27.1542L83.776 58.3453C84.1981 58.5409 84.3816 59.0884 84.1798 59.5187C83.9963 59.9684 83.4824 60.164 83.0787 59.9489L20.316 29.3835L25.6931 94.8164L57.4231 126.966C57.5882 127.142 57.6984 127.376 57.68 127.631L56.4137 173.547C56.4137 174.036 56.0467 174.427 55.5879 174.427Z" fill="white"/>
<path d="M116.46 166.664C116.46 166.664 116.442 166.664 116.424 166.664C115.965 166.644 115.598 166.233 115.616 165.744L117.561 105.65C117.58 105.279 117.8 104.966 118.112 104.848L153.09 91.4138C153.531 91.2378 154.008 91.492 154.155 91.9418C154.32 92.4111 154.081 92.9195 153.659 93.076L119.213 106.296L117.286 165.784C117.286 166.292 116.919 166.664 116.46 166.664Z" fill="white"/>
<path d="M129.747 18.276C129.747 18.276 129.729 18.276 129.71 18.276L80.069 16.3595C79.9773 16.3595 79.8671 16.34 79.7754 16.2813L49.5502 2.67065C49.1281 2.4751 48.9263 1.96666 49.1098 1.49732C49.2933 1.04754 49.7888 0.83243 50.2109 1.02799L80.2892 14.5604L129.765 16.4573C130.224 16.4769 130.591 16.8875 130.573 17.3764C130.573 17.8849 130.206 18.276 129.747 18.276Z" fill="white"/>
<path d="M135.766 72.5622C135.454 72.5622 135.142 72.3666 135.014 72.0342L119.378 34.8591L80.0323 16.3986L19.5086 28.8164C19.1232 28.8751 18.7194 28.66 18.5726 28.2689L13.6727 15.1275C13.5076 14.6778 13.7094 14.1498 14.1315 13.9738C14.5536 13.7978 15.0491 14.0129 15.2143 14.4627L19.8756 26.9391L79.9589 14.5995C80.1241 14.5604 80.2892 14.58 80.4544 14.6582L120.333 33.3729C120.516 33.4511 120.681 33.6271 120.755 33.8227L136.519 71.3107C136.702 71.7604 136.519 72.2884 136.097 72.484C136.005 72.5427 135.876 72.5622 135.766 72.5622Z" fill="white"/>
<path d="M55.5879 174.427C55.331 174.427 55.0924 174.31 54.9273 174.075L20.7565 126.77L6.71747 125.46C6.31373 125.421 6.00176 125.088 5.96506 124.678L0.422852 71.4476C0.422852 71.428 0.422852 71.4084 0.422852 71.3889C0.422852 71.3107 0.422859 71.2324 0.459563 71.1347L13.636 14.5996C13.7095 14.3062 13.9113 14.0716 14.1682 13.9738L49.6236 1.04755C49.7337 1.00844 49.8438 0.988882 49.954 1.00844L89.8321 3.92221L130.004 16.5551C130.316 16.6529 130.554 16.9462 130.591 17.2982L136.574 71.3107L154.008 91.668C154.155 91.844 154.228 92.0591 154.228 92.2938L153.164 133.321C153.164 133.576 153.054 133.81 152.87 133.967L116.993 166.448C116.864 166.566 116.717 166.624 116.552 166.664L55.6797 174.427C55.6613 174.427 55.6246 174.427 55.5879 174.427ZM22.0778 125.675L55.9733 172.589L116.13 164.923L151.53 132.872L152.558 92.5871L135.161 72.2884C135.051 72.1516 134.977 71.9756 134.94 71.7996L128.995 18.0804L89.5385 5.66265L50.009 2.76843L15.1409 15.4795L2.18461 71.0564L25.4545 94.5818C25.6564 94.7773 25.7481 95.0511 25.7114 95.3444L22.0778 125.675ZM7.5433 123.759L20.4629 124.971L24.0047 95.5791L2.33142 73.6769L7.5433 123.759Z" fill="white"/>
<path d="M56.2119 151.332C56.0651 151.332 55.9366 151.254 55.8448 151.117L24.5186 95.4618C24.4085 95.2662 24.4635 94.9924 24.647 94.8556C24.8306 94.7187 25.0691 94.7578 25.2159 94.9533L56.8542 139.481C57.001 139.677 56.9643 139.951 56.7808 140.107C56.5973 140.264 56.3403 140.224 56.1935 140.029L29.235 102.072L56.5789 150.648C56.689 150.863 56.634 151.136 56.4321 151.254C56.3587 151.312 56.2853 151.332 56.2119 151.332Z" fill="white"/>
<path d="M47.2746 162.479C47.1095 162.479 46.9443 162.361 46.8892 162.185L24.5002 95.3836C24.4268 95.1684 24.5186 94.9142 24.7204 94.8164C24.9223 94.7187 25.1609 94.8164 25.2526 95.0316L56.3036 160.953C56.4138 161.168 56.322 161.442 56.1201 161.54C55.9182 161.657 55.6613 161.56 55.5512 161.344L27.5833 101.954L47.6784 161.892C47.7518 162.127 47.6417 162.381 47.4214 162.459C47.3847 162.479 47.3297 162.479 47.2746 162.479Z" fill="white"/>
<path d="M36.0801 146.971C35.8966 146.971 35.7131 146.834 35.6764 146.619L25.5463 100.194L27.1612 133.556C27.1796 133.81 26.996 134.006 26.7575 134.025C26.5189 134.006 26.3354 133.849 26.317 133.595L24.4635 95.2271C24.4452 94.9924 24.6103 94.7969 24.8306 94.7578C25.0141 94.7382 25.2526 94.8751 25.2894 95.0902L36.4839 146.384C36.5389 146.619 36.3921 146.873 36.1719 146.912C36.1535 146.971 36.1168 146.971 36.0801 146.971Z" fill="white"/>
<path d="M56.8542 128.061C56.7257 128.061 56.6156 128.002 56.5238 127.904C56.377 127.728 56.3954 127.455 56.5606 127.298L118.956 67.5951C119.121 67.4387 119.397 67.4387 119.543 67.6342C119.69 67.8102 119.69 68.1035 119.507 68.26L62.9102 122.429L118.718 79.5631C118.901 79.4067 119.158 79.4653 119.305 79.6609C119.433 79.8564 119.397 80.1302 119.213 80.2867L57.0744 128.002C57.0193 128.022 56.9459 128.061 56.8542 128.061Z" fill="white"/>
<path d="M57.8085 127.552C57.6617 127.552 57.5148 127.455 57.4414 127.298C57.3497 127.083 57.4231 126.829 57.6066 126.712L118.552 90.1231C118.754 90.0058 119.011 90.084 119.121 90.2991C119.231 90.5142 119.158 90.788 118.956 90.9053L66.3053 122.527L118.424 97.3587C118.644 97.2609 118.883 97.3587 118.975 97.5738C119.066 97.7889 118.975 98.0627 118.773 98.1604L57.992 127.513C57.9186 127.533 57.8635 127.552 57.8085 127.552Z" fill="white"/>
<path d="M98.8611 87.8742C98.806 87.8742 98.751 87.8547 98.6959 87.8351C98.4757 87.7373 98.384 87.4831 98.4757 87.2484L119.617 34.0182C119.709 33.8031 119.929 33.7053 120.131 33.764C120.333 33.8422 120.461 34.0769 120.406 34.292L109.854 77.3924C109.799 77.6271 109.578 77.7835 109.34 77.7053C109.12 77.6466 108.991 77.3924 109.046 77.1578L118.149 39.9826L99.2465 87.5809C99.1731 87.7569 99.0263 87.8742 98.8611 87.8742Z" fill="white"/>
<path d="M70.5812 114.92C70.5078 114.92 70.416 114.9 70.3426 114.841C70.1591 114.704 70.1041 114.431 70.2142 114.216L119.617 33.94C119.745 33.7444 119.984 33.6858 120.186 33.8031C120.388 33.9204 120.443 34.1942 120.333 34.3898L87.7767 98.5516C87.6666 98.7667 87.4097 98.8449 87.2078 98.7275C87.0059 98.6102 86.9325 98.3364 87.0426 98.1213L114.919 43.1898L70.9115 114.704C70.8565 114.841 70.728 114.92 70.5812 114.92Z" fill="white"/>
<path d="M56.8542 128.061C56.7808 128.061 56.7074 128.041 56.634 128.002C56.4321 127.865 56.377 127.592 56.5055 127.396L101.504 50.4449L71.6089 90.8076C71.4621 91.0031 71.2052 91.0422 71.0217 90.8858C70.8381 90.7293 70.8014 90.4556 70.9483 90.26L105.504 43.62C105.651 43.4244 105.89 43.4049 106.073 43.5222C106.257 43.6591 106.312 43.9133 106.183 44.1284L57.2212 127.865C57.1295 127.983 57.001 128.061 56.8542 128.061Z" fill="white"/>
<path d="M98.8611 68.9836C98.8244 68.9836 98.7877 68.9836 98.7326 68.964C98.5124 68.8858 98.384 68.6511 98.4574 68.4164L105.413 43.7373C105.468 43.5418 105.651 43.3853 105.853 43.4244C106.055 43.444 106.202 43.62 106.22 43.8351L107.156 55.6662C107.174 55.9204 107.009 56.1356 106.771 56.1551C106.514 56.1942 106.33 55.9987 106.312 55.7444L105.578 46.2209L99.2465 68.6511C99.2098 68.8662 99.0263 68.9836 98.8611 68.9836Z" fill="white"/>
<path d="M111.983 47.6484C111.909 47.6484 111.854 47.6289 111.799 47.6093L105.633 44.2653C105.486 44.1871 105.394 44.0111 105.413 43.8351C105.431 43.6591 105.541 43.5027 105.706 43.444L116.038 40.0218C116.258 39.9435 116.497 40.0804 116.552 40.3151C116.625 40.5498 116.497 40.804 116.277 40.8627L106.936 43.972L112.184 46.8271C112.386 46.9444 112.478 47.1987 112.368 47.4333C112.276 47.5702 112.129 47.6484 111.983 47.6484Z" fill="white"/>
<path d="M78.3073 72.7969C78.1972 72.7969 78.087 72.7578 78.0136 72.66C77.8485 72.484 77.8485 72.2102 78.0136 72.0342L105.523 43.5418C105.688 43.3658 105.945 43.3658 106.11 43.5418C106.275 43.7178 106.275 43.9915 106.11 44.1675L78.6009 72.66C78.5275 72.7578 78.4174 72.7969 78.3073 72.7969Z" fill="white"/>
<path d="M152.338 133.732C152.191 133.732 152.026 133.634 151.971 133.478L136.06 98.9622C135.95 98.7471 136.042 98.4733 136.243 98.3755C136.445 98.2778 136.702 98.356 136.794 98.5711L151.163 129.723L144.043 95.7747C143.988 95.54 144.135 95.3053 144.355 95.2467C144.575 95.188 144.795 95.3444 144.85 95.5791L152.742 133.184C152.797 133.4 152.668 133.634 152.466 133.693C152.43 133.732 152.375 133.732 152.338 133.732Z" fill="white"/>
<path d="M152.338 133.732C152.246 133.732 152.154 133.693 152.081 133.634L119.745 105.435C119.562 105.279 119.543 105.005 119.69 104.809C119.837 104.614 120.094 104.594 120.277 104.751L149.475 130.232L128.205 102.091C128.059 101.896 128.095 101.622 128.26 101.465C128.444 101.309 128.701 101.348 128.848 101.524L152.65 133.008C152.778 133.184 152.778 133.439 152.613 133.595C152.54 133.693 152.448 133.732 152.338 133.732Z" fill="white"/>
<path d="M152.338 133.732C152.301 133.732 152.264 133.732 152.228 133.712L117.727 124.306C117.506 124.248 117.36 123.993 117.433 123.759C117.488 123.524 117.708 123.368 117.947 123.446L148.888 131.874L117.947 114.88C117.745 114.763 117.653 114.509 117.763 114.274C117.873 114.059 118.13 113.961 118.332 114.079L152.54 132.872C152.723 132.969 152.815 133.204 152.742 133.419C152.668 133.615 152.503 133.732 152.338 133.732Z" fill="white"/>
<path d="M117.231 142.61C117.048 142.61 116.864 142.473 116.827 142.278C116.772 142.043 116.919 141.789 117.139 141.75L149.071 133.673L117.543 132.969C117.305 132.969 117.121 132.754 117.139 132.52C117.139 132.265 117.378 132.05 117.561 132.089L152.356 132.872C152.558 132.872 152.742 133.048 152.76 133.263C152.778 133.478 152.65 133.693 152.448 133.752L117.341 142.63C117.286 142.61 117.268 142.61 117.231 142.61Z" fill="white"/>
<path d="M116.901 152.623C116.754 152.623 116.607 152.525 116.534 152.368C116.424 152.153 116.515 151.88 116.717 151.782L152.154 132.891C152.356 132.774 152.613 132.872 152.705 133.087C152.815 133.302 152.723 133.576 152.521 133.673L117.084 152.564C117.029 152.603 116.974 152.623 116.901 152.623Z" fill="white"/>
<path d="M131.802 34.5658C131.362 34.5658 127.6 33.1969 79.9956 15.8902C79.7937 15.812 79.6653 15.5773 79.7203 15.3427C79.7754 15.108 79.9773 14.9711 80.1975 15.0298L130.811 25.8244C131.032 25.8635 131.178 26.0982 131.142 26.3524C131.105 26.5871 130.885 26.7631 130.646 26.7044L86.2535 17.2395C99.7787 22.148 131.38 33.6467 131.729 33.764L131.6 34.1747L131.839 34.5462C131.839 34.5658 131.839 34.5658 131.802 34.5658Z" fill="white"/>
<path d="M132.683 44.3044C132.61 44.3044 132.536 44.2849 132.481 44.2458L120.92 37.2644C120.718 37.1471 120.645 36.8733 120.755 36.6582C120.865 36.4431 121.122 36.3649 121.324 36.4822L132.885 43.4635C133.087 43.5809 133.16 43.8547 133.05 44.0698C132.977 44.2262 132.83 44.3044 132.683 44.3044Z" fill="white"/>
<path d="M133.949 55.6662C133.839 55.6662 133.748 55.6271 133.656 55.5489L124.627 46.2013C124.462 46.0253 124.462 45.7515 124.627 45.5755C124.792 45.3995 125.049 45.3995 125.214 45.5755L134.243 54.9231C134.408 55.0991 134.408 55.3729 134.243 55.5489C134.17 55.6271 134.06 55.6662 133.949 55.6662Z" fill="white"/>
</svg>
