<svg width="163" height="163" viewBox="0 0 163 163" fill="none" xmlns="http://www.w3.org/2000/svg">
<path d="M102.162 162.257C102.106 162.257 102.069 162.257 102.014 162.238L55.9402 153.692C55.7361 153.653 55.5506 153.535 55.4207 153.359L30.4634 118.726L0.960099 62.6411C0.848766 62.426 0.830194 62.1913 0.885861 61.9566L10.7018 25.7593C10.7574 25.5442 10.8873 25.3682 11.0543 25.2509L46.9037 0.962858C47.0521 0.86508 47.2191 0.806459 47.3676 0.826015L111.162 2.17535C111.236 2.17535 111.31 2.19489 111.384 2.21444L150.221 14.5736C150.499 14.6518 150.703 14.8865 150.796 15.1798L162.319 57.9087C162.375 58.1238 162.356 58.3584 162.264 58.554L141.147 102.163L115.299 147.414L102.83 161.944C102.626 162.159 102.403 162.257 102.162 162.257ZM56.5525 152.01L101.847 160.399L113.908 146.378L139.626 101.322L160.575 58.0651L149.275 16.1576L110.995 3.97443L47.5716 2.62509L12.2048 26.5806L2.57442 62.1131L31.8551 117.768L56.5525 152.01Z" fill="white"/>
<path d="M43.9162 53.6651C43.7307 53.6651 43.5451 53.6065 43.3967 53.4696L10.9615 26.7176C10.5904 26.4047 10.5348 25.8571 10.8131 25.466C11.11 25.0749 11.6296 25.0162 12.0007 25.3096L44.1389 51.8269L99.787 42.0882L110.308 2.84027C110.438 2.37093 110.902 2.09716 111.347 2.23405C111.792 2.37094 112.052 2.85982 111.922 3.32915L101.271 43.1247C101.179 43.4571 100.919 43.7114 100.603 43.77L44.0647 53.6651C44.009 53.6651 43.9533 53.6651 43.9162 53.6651Z" fill="white"/>
<path d="M140.349 102.671C140.09 102.671 139.83 102.534 139.663 102.3L99.7685 43.3984C99.4901 43.0073 99.5829 42.4402 99.9725 42.1664C100.344 41.8731 100.882 41.9709 101.142 42.3816L141.036 101.283C141.314 101.694 141.222 102.241 140.832 102.515C140.683 102.632 140.516 102.671 140.349 102.671Z" fill="white"/>
<path d="M114.539 147.864C114.39 147.864 114.242 147.825 114.112 147.747L69.5229 120.31C69.3559 120.213 69.2446 120.056 69.1704 119.88L43.1369 53.098C42.9514 52.6482 43.1741 52.1202 43.6008 51.9442C44.0276 51.7487 44.5286 51.9834 44.6956 52.4331L70.6177 118.922L114.965 146.202C115.374 146.456 115.504 147.004 115.262 147.414C115.114 147.708 114.817 147.864 114.539 147.864Z" fill="white"/>
<path d="M69.9496 120.447H69.9311L31.0943 119.098C30.6304 119.078 30.2593 118.668 30.2779 118.179C30.2964 117.69 30.6675 117.318 31.15 117.318L69.9868 118.668C70.4507 118.687 70.8217 119.098 70.8032 119.587C70.7661 120.056 70.395 120.447 69.9496 120.447Z" fill="white"/>
<path d="M120.402 38.1576H120.384L57.5545 34.794C57.3875 34.794 57.2391 34.6571 57.1834 34.4811L46.9408 1.88201C46.8665 1.64734 46.9964 1.39316 47.2005 1.31494C47.4232 1.23672 47.6644 1.35402 47.7386 1.58869L57.8885 33.8945L120.291 37.2385L149.72 15.0625C149.906 14.9256 150.165 14.9647 150.314 15.1602C150.444 15.3558 150.407 15.6491 150.221 15.786L120.681 38.0403C120.569 38.1185 120.495 38.1576 120.402 38.1576Z" fill="white"/>
<path d="M21.0929 83.5265C20.9816 83.5265 20.8702 83.4874 20.796 83.3896L1.3869 62.5238C1.2199 62.3478 1.2199 62.074 1.3869 61.898C1.5539 61.722 1.81364 61.722 1.98064 61.898L21.0557 82.4118L57.2391 34.0509C57.3875 33.8554 57.6473 33.8162 57.8329 33.9727C58.0184 34.1291 58.0556 34.4029 57.9071 34.5985L21.4269 83.3505C21.3527 83.4482 21.2413 83.5069 21.1114 83.5265C21.0929 83.5265 21.0929 83.5265 21.0929 83.5265Z" fill="white"/>
<path d="M56.0702 153.262C55.9032 153.262 55.7547 153.164 55.6805 152.988L44.5843 125.102L20.7218 83.3113C20.6105 83.0962 20.6662 82.8224 20.8703 82.7051C21.0744 82.5878 21.3342 82.6464 21.4455 82.8615L45.345 124.71L56.4598 152.655C56.5526 152.89 56.4413 153.144 56.2372 153.242C56.1815 153.262 56.1258 153.262 56.0702 153.262Z" fill="white"/>
<path d="M124.559 112.117C124.503 112.117 124.466 112.117 124.41 112.078L91.771 98.8189C91.6597 98.7798 91.5669 98.682 91.5298 98.5647C91.4926 98.4473 91.4927 98.3105 91.5483 98.2127L120.031 37.5122C120.142 37.2971 120.384 37.1994 120.588 37.3167C120.792 37.434 120.885 37.6882 120.773 37.9034L92.4946 98.1736L124.41 111.139L161.132 57.9087C161.262 57.7132 161.54 57.6545 161.725 57.8109C161.911 57.9478 161.948 58.2411 161.818 58.4367L124.911 111.941C124.818 112.058 124.689 112.117 124.559 112.117Z" fill="white"/>
<path d="M102.162 161.807C102.106 161.807 102.032 161.788 101.977 161.768C101.772 161.67 101.68 161.397 101.772 161.182L124.169 111.491C124.262 111.276 124.522 111.178 124.726 111.276C124.93 111.374 125.023 111.647 124.93 111.862L102.533 161.553C102.478 161.729 102.311 161.807 102.162 161.807Z" fill="white"/>
<path d="M44.9739 125.395C44.8255 125.395 44.677 125.317 44.6028 125.16C44.4914 124.945 44.5657 124.671 44.7698 124.554L91.6968 98.0171C91.9009 97.8998 92.1607 97.978 92.272 98.1931C92.3833 98.4082 92.3091 98.682 92.105 98.7993L45.178 125.336C45.1223 125.375 45.0481 125.395 44.9739 125.395Z" fill="white"/>
</svg>
