<svg width="160" height="161" viewBox="0 0 160 161" fill="none" xmlns="http://www.w3.org/2000/svg">
<path d="M80.0984 27.9654C79.6345 27.9654 79.2634 27.5742 79.2634 27.0658V1.7218C79.2634 1.23292 79.6345 0.822266 80.0984 0.822266C80.5622 0.822266 80.9519 1.21336 80.9519 1.7218V27.0658C80.9519 27.5547 80.5622 27.9654 80.0984 27.9654Z" fill="white"/>
<path d="M80.0984 131.317C79.6345 131.317 79.2634 130.925 79.2634 130.417V112.172C79.2634 111.683 79.6345 111.272 80.0984 111.272C80.5622 111.272 80.9519 111.663 80.9519 112.172V130.417C80.9519 130.925 80.5622 131.317 80.0984 131.317Z" fill="white"/>
<path d="M31.5571 160.063C31.3901 160.063 31.2045 160.004 31.056 159.887C30.6849 159.594 30.5922 159.046 30.8705 158.636L45.0098 138.141C45.2882 137.75 45.8078 137.652 46.1974 137.946C46.5685 138.239 46.6613 138.787 46.3829 139.197L32.2436 159.692C32.0766 159.926 31.8168 160.063 31.5571 160.063Z" fill="white"/>
<path d="M128.64 160.063C128.38 160.063 128.12 159.926 127.953 159.692L113.814 139.197C113.536 138.806 113.628 138.239 113.999 137.946C114.371 137.652 114.909 137.75 115.187 138.141L129.326 158.636C129.605 159.027 129.512 159.594 129.141 159.887C128.992 160.004 128.807 160.063 128.64 160.063Z" fill="white"/>
<path d="M135.765 70.5965C135.412 70.5965 135.078 70.3618 134.967 69.9903C134.819 69.5209 135.06 69.0125 135.505 68.8756L158.384 61.0339C158.83 60.8774 159.312 61.1316 159.442 61.6009C159.59 62.0703 159.349 62.5787 158.904 62.7156L136.025 70.5574C135.932 70.577 135.858 70.5965 135.765 70.5965Z" fill="white"/>
<path d="M42.5047 102.531C42.1522 102.531 41.8182 102.296 41.7069 101.925C41.5584 101.455 41.7997 100.947 42.245 100.81L58.7038 95.1778C59.1491 95.0214 59.6316 95.2756 59.7615 95.745C59.9099 96.2143 59.6686 96.7227 59.2233 96.8596L42.7645 102.492C42.6903 102.511 42.5975 102.531 42.5047 102.531Z" fill="white"/>
<path d="M67.0353 70.7138C66.7755 70.7138 66.5157 70.5769 66.3487 70.3422L56.1803 55.5778C55.902 55.1867 55.9947 54.6196 56.3658 54.3262C56.737 54.0329 57.2751 54.1307 57.5534 54.5218L67.7218 69.2863C68.0002 69.6774 67.9074 70.2445 67.5363 70.5378C67.3879 70.6551 67.2023 70.7138 67.0353 70.7138Z" fill="white"/>
<path d="M93.1616 70.7138C92.9946 70.7138 92.809 70.6551 92.6605 70.5378C92.2894 70.2445 92.1967 69.6969 92.475 69.2863L102.643 54.5218C102.922 54.1307 103.441 54.0329 103.831 54.3262C104.202 54.6196 104.295 55.1671 104.017 55.5778L93.8481 70.3422C93.6811 70.5769 93.4213 70.7138 93.1616 70.7138Z" fill="white"/>
<path d="M117.692 102.531C117.599 102.531 117.525 102.511 117.432 102.492L100.973 96.8596C100.528 96.7031 100.287 96.2143 100.435 95.745C100.584 95.2756 101.066 95.0214 101.493 95.1778L117.952 100.81C118.397 100.966 118.638 101.455 118.49 101.925C118.378 102.296 118.044 102.531 117.692 102.531Z" fill="white"/>
<path d="M24.4316 70.5965C24.3389 70.5965 24.2647 70.577 24.1719 70.5574L1.2929 62.7156C0.847571 62.5592 0.606277 62.0703 0.754721 61.6009C0.903166 61.1316 1.36707 60.8774 1.8124 61.0339L24.6914 68.8756C25.1368 69.032 25.378 69.5209 25.2295 69.9903C25.1182 70.3618 24.8027 70.5965 24.4316 70.5965Z" fill="white"/>
<path d="M80.0983 113.071C79.9313 113.071 79.7459 113.012 79.5974 112.895L58.4626 96.7227C58.1657 96.4881 58.0359 96.0969 58.1472 95.7254L66.2188 69.5405C66.3301 69.1689 66.6641 68.9342 67.0167 68.9342H93.1429C93.5141 68.9342 93.8295 69.1885 93.9408 69.5405L102.012 95.7254C102.124 96.0969 101.994 96.4881 101.697 96.7227L80.5622 112.895C80.4509 113.012 80.2839 113.071 80.0983 113.071ZM59.947 95.6667L80.0983 111.076L100.25 95.6667L92.5492 70.7138H67.6476L59.947 95.6667Z" fill="white"/>
<path d="M128.64 160.063H31.5571C31.186 160.063 30.8705 159.809 30.7591 159.457L0.754732 62.168C0.643399 61.7965 0.773369 61.4054 1.07026 61.1707L79.5974 1.03736C79.8943 0.802689 80.3025 0.802689 80.5993 1.03736L159.145 61.1707C159.442 61.4054 159.572 61.7965 159.46 62.168L129.456 159.457C129.326 159.809 129.011 160.063 128.64 160.063ZM32.1879 158.284H128.027L157.642 62.2071L80.0983 2.83649L2.55468 62.2071L32.1879 158.284Z" fill="white"/>
<path d="M114.5 139.569C114.445 139.569 114.37 139.569 114.315 139.549L80.0984 131.356L45.8819 139.549C45.6407 139.608 45.3995 139.549 45.1954 139.393C44.9913 139.236 44.8799 139.002 44.8428 138.748L41.6699 101.925L23.7081 70.1663C23.5782 69.9511 23.5596 69.6774 23.6338 69.4427C23.708 69.1885 23.875 68.9929 24.0977 68.8952L56.3473 54.3262L79.449 26.4987C79.7644 26.1076 80.3953 26.1076 80.7293 26.4987L103.831 54.3262L136.081 68.8952C136.303 68.9929 136.47 69.1885 136.544 69.4427C136.619 69.6969 136.6 69.9511 136.47 70.1663L118.508 101.925L115.335 138.748C115.317 139.002 115.187 139.236 114.983 139.393C114.853 139.51 114.686 139.569 114.5 139.569ZM80.0984 129.537C80.154 129.537 80.2283 129.537 80.284 129.556L113.74 137.574L116.838 101.553C116.857 101.416 116.894 101.299 116.95 101.181L134.522 70.1076L102.977 55.8712C102.866 55.8125 102.755 55.7343 102.681 55.6365L80.0798 28.4151L57.4791 55.6365C57.4049 55.7343 57.2936 55.8125 57.1823 55.8712L25.6378 70.1076L43.2099 101.181C43.2841 101.299 43.3212 101.416 43.3212 101.553L46.4201 137.574L79.8757 129.556C79.9685 129.537 80.0427 129.537 80.0984 129.537Z" fill="white"/>
<path d="M43.581 142.17C43.3954 142.17 43.2285 142.033 43.1728 141.837L24.0235 69.8143C23.9678 69.5796 24.0976 69.3254 24.3203 69.2667C24.543 69.1885 24.7842 69.3449 24.8399 69.5796L43.9893 141.603C44.0449 141.837 43.915 142.092 43.6923 142.15C43.6552 142.17 43.6181 142.17 43.581 142.17Z" fill="white"/>
<path d="M38.9793 148.877C38.7752 148.877 38.6081 148.721 38.571 148.525L24.0421 69.8142C24.005 69.5796 24.1534 69.3449 24.3761 69.2863C24.6359 69.2276 24.8213 69.4036 24.877 69.6382L39.406 148.349C39.4432 148.584 39.2947 148.819 39.0721 148.877C39.0164 148.877 38.9979 148.877 38.9793 148.877Z" fill="white"/>
<path d="M34.0064 156.054C33.8023 156.054 33.6166 155.898 33.5795 155.663L24.0049 69.7556C23.9864 69.5014 24.1348 69.2862 24.376 69.2667C24.5987 69.208 24.8214 69.4232 24.8399 69.6578L34.4146 155.565C34.4331 155.82 34.2846 156.035 34.0434 156.054C34.0434 156.054 34.0249 156.054 34.0064 156.054Z" fill="white"/>
<path d="M26.6584 143.715C26.4357 143.715 26.2502 143.519 26.2316 143.285L24.0049 69.7165C24.0049 69.4623 24.1719 69.2667 24.4131 69.2667C24.4131 69.2667 24.4131 69.2667 24.4317 69.2667C24.6543 69.2667 24.84 69.4623 24.8585 69.6969L27.0851 143.265C27.1037 143.519 26.9181 143.715 26.6584 143.715C26.6769 143.715 26.6769 143.715 26.6584 143.715Z" fill="white"/>
<path d="M20.498 123.709C20.4794 123.709 20.4795 123.709 20.4609 123.709C20.2197 123.69 20.0527 123.475 20.0712 123.24L24.0236 69.6969C24.0421 69.4427 24.2462 69.2472 24.4689 69.2863C24.7101 69.3058 24.8771 69.5209 24.8586 69.7556L20.9062 123.299C20.9062 123.533 20.7206 123.709 20.498 123.709Z" fill="white"/>
<path d="M16.6941 111.37C16.6755 111.37 16.6384 111.37 16.6199 111.37C16.3972 111.331 16.2488 111.096 16.2859 110.842L22.9473 75.4071L14.0778 101.299C14.0036 101.533 13.7623 101.651 13.5396 101.572C13.3169 101.494 13.2056 101.24 13.2798 101.005L24.0421 69.56C24.1163 69.3449 24.3389 69.2276 24.543 69.2863C24.7657 69.345 24.8956 69.5796 24.84 69.7947L17.0838 111.018C17.0652 111.213 16.8796 111.37 16.6941 111.37Z" fill="white"/>
<path d="M11.1088 93.2809C11.0346 93.2809 10.9604 93.2614 10.8862 93.2223C10.6821 93.0854 10.6264 92.8311 10.7377 92.616L22.5576 72.1023L8.9193 85.1458C8.7523 85.3022 8.47395 85.3023 8.32551 85.1067C8.17706 84.9307 8.1771 84.6374 8.36265 84.4809L24.1535 69.3644C24.3205 69.208 24.5431 69.208 24.7101 69.3449C24.8771 69.4818 24.9142 69.736 24.8029 69.912L11.48 93.0463C11.3872 93.2027 11.2573 93.2809 11.1088 93.2809Z" fill="white"/>
<path d="M6.61839 78.6925C6.45139 78.6925 6.3029 78.5947 6.22868 78.4382C6.1359 78.2036 6.22877 77.9493 6.43288 77.8515L22.3349 70.2249L4.16904 70.792C4.16904 70.792 4.16902 70.792 4.15047 70.792C3.9278 70.792 3.74228 70.5965 3.72372 70.3618C3.72372 70.1076 3.89067 69.912 4.13189 69.912L24.3946 69.2667C24.5616 69.2471 24.7657 69.4036 24.8214 69.6187C24.8585 69.8338 24.7657 70.0294 24.5802 70.1271L6.76686 78.6729C6.72975 78.6925 6.67405 78.6925 6.61839 78.6925Z" fill="white"/>
<path d="M44.4718 124.785C44.3048 124.785 44.1377 124.668 44.082 124.492L24.0606 69.8729C23.9679 69.6383 24.0791 69.384 24.3018 69.3058C24.5244 69.208 24.7657 69.3254 24.8399 69.5601L44.8614 124.179C44.9541 124.413 44.8428 124.668 44.6201 124.746C44.5645 124.765 44.5089 124.785 44.4718 124.785Z" fill="white"/>
</svg>
