<svg width="151" height="174" viewBox="0 0 151 174" fill="none" xmlns="http://www.w3.org/2000/svg">
<path d="M50.5 151.872C50.4443 151.872 50.37 151.872 50.3144 151.853C50.036 151.775 49.7949 151.559 49.7021 151.266L35.5442 107.54L8.95406 67.6271C8.78706 67.3728 8.74999 67.0404 8.87988 66.7666C8.99121 66.4733 9.25094 66.2777 9.52927 66.2386L149.067 45.7835C149.438 45.7248 149.772 45.9204 149.939 46.2724C150.106 46.6048 150.032 47.035 149.791 47.2892L51.1123 151.618C50.9453 151.794 50.7226 151.872 50.5 151.872ZM11.125 67.803L36.9915 106.64C37.0471 106.719 37.0842 106.777 37.1028 106.875L50.8525 149.369L146.785 47.9346L11.125 67.803Z" fill="white"/>
<path d="M50.5 151.872C50.3144 151.872 50.1474 151.814 49.999 151.696C49.7578 151.501 49.6279 151.188 49.665 150.856L57.1244 94.907L9.25095 67.8812C8.97262 67.7248 8.78708 67.4119 8.80564 67.0599C8.80564 66.7275 9.00977 66.4146 9.2881 66.2777L43.0964 49.8902L69.668 1.39235C69.6865 1.35324 69.705 1.33371 69.7236 1.2946C69.7607 1.23593 69.7978 1.19685 69.8535 1.13818C69.9648 1.0404 70.0761 0.981685 70.2246 0.962129C70.2431 0.962129 70.2431 0.962129 70.2616 0.962129C70.4286 0.942574 70.5956 0.962146 70.7441 1.04037C70.8554 1.09903 70.9297 1.19682 71.0039 1.2946L98.3362 42.4395L149.141 45.7052C149.438 45.7248 149.698 45.9008 149.828 46.1746C149.958 46.4484 149.958 46.7809 149.809 47.0351L123.256 94.9853L137.655 138.575C137.767 138.888 137.693 139.22 137.488 139.474C137.47 139.513 137.433 139.533 137.396 139.572C137.303 139.65 137.192 139.709 137.08 139.748C137.025 139.767 136.969 139.768 136.913 139.768C136.876 139.768 136.839 139.768 136.802 139.768L84.902 135.798L50.7598 151.716C50.7413 151.853 50.6113 151.872 50.5 151.872ZM58.7201 95.8261L51.5577 149.526L84.5124 134.155C84.6423 134.096 84.7536 134.077 84.9206 134.077L133.072 137.753L58.7201 95.8261ZM58.9614 93.9488L134.965 136.834L70.8554 4.77549L58.9614 93.9488ZM76.719 12.9302L132.144 127.076L121.624 95.2395C121.549 94.9853 121.568 94.7311 121.698 94.4964L147.75 47.4457L97.9095 44.2386C97.6497 44.219 97.4085 44.0821 97.2601 43.867L76.719 12.9302ZM11.5519 67.1773L57.3841 93.0493L68.9628 6.28124L44.4323 51.0635C44.3396 51.22 44.2096 51.3568 44.0612 51.4351L11.5519 67.1773Z" fill="white"/>
<path d="M79.4096 173.735C79.1313 173.735 78.8715 173.599 78.7045 173.344L61.1509 146.182C60.8911 145.771 60.9839 145.223 61.3736 144.95C61.7632 144.676 62.2828 144.774 62.5426 145.184L78.8714 170.47L99.7093 25.1133L89.0956 30.315C88.6873 30.5106 88.1678 30.3346 87.9823 29.8848C87.7782 29.435 87.9637 28.907 88.3904 28.7115L100.433 22.8253C100.711 22.6884 101.045 22.7275 101.287 22.923C101.528 23.1186 101.658 23.451 101.621 23.7639L80.226 173.012C80.1703 173.364 79.9106 173.657 79.5766 173.755C79.5395 173.735 79.4653 173.735 79.4096 173.735Z" fill="white"/>
<path d="M1.12366 129.403C0.900996 129.403 0.696872 129.325 0.529872 129.149C0.251538 128.875 0.195858 128.425 0.399969 128.073L22.5182 87.0653C22.7408 86.635 23.2604 86.4982 23.6686 86.7329C24.0768 86.9675 24.2252 87.5151 23.984 87.9453L3.40596 126.098L35.9153 106.367C52.8009 96.0218 56.7532 93.8902 57.9222 93.5969V93.5577C59.3324 93.0884 78.4446 81.5115 91.8417 73.3177L62.4312 60.1373L14.2423 38.0395L21.7759 61.3497C21.9243 61.8191 21.6832 62.3275 21.2564 62.484C20.8296 62.6404 20.3286 62.3862 20.1801 61.9364L12.0342 36.7293C11.9229 36.3968 12.0158 36.0253 12.257 35.7907C12.4982 35.556 12.8508 35.4973 13.1662 35.6342L63.0992 58.5337L94.0498 72.3986C94.3467 72.5355 94.5509 72.8288 94.5694 73.1613C94.588 73.4937 94.4209 73.8262 94.1426 73.9827C65.1588 91.7391 59.5551 94.868 58.182 95.2395V95.2982C56.9944 95.6502 44.4137 103.218 36.7502 107.911L1.5504 129.266C1.40196 129.364 1.25355 129.403 1.12366 129.403Z" fill="white"/>
<path d="M44.3209 132.767C44.3024 132.767 44.2839 132.767 44.2653 132.767L1.06793 129.403C0.604046 129.364 0.251522 128.934 0.288633 128.445C0.325744 127.956 0.715393 127.604 1.19784 127.623L44.3951 130.987C44.859 131.026 45.2116 131.456 45.1745 131.945C45.1374 132.415 44.7663 132.767 44.3209 132.767Z" fill="white"/>
<path d="M50.2216 39.5844C50.2031 39.5844 50.1846 39.5844 50.166 39.5844L12.7394 37.316C12.2755 37.2964 11.923 36.8662 11.9415 36.3773C11.9601 35.8884 12.3498 35.4973 12.8323 35.5364L50.2588 37.8049C50.7227 37.8244 51.0752 38.2546 51.0567 38.7435C51.0381 39.2324 50.667 39.5844 50.2216 39.5844Z" fill="white"/>
<path d="M106.575 44.8057C106.204 44.8057 105.87 44.5514 105.758 44.1799L99.9877 23.8812C99.8578 23.4119 100.099 22.9035 100.544 22.7666C100.99 22.6101 101.454 22.8839 101.602 23.3532L107.373 43.6519C107.503 44.1212 107.261 44.6297 106.816 44.7666C106.723 44.8057 106.649 44.8057 106.575 44.8057Z" fill="white"/>
<path d="M128.693 114.815C128.378 114.815 128.081 114.619 127.932 114.306C127.728 113.856 127.914 113.328 128.341 113.113L138.361 108.107L93.2148 73.924C92.8437 73.6306 92.751 73.0831 93.0293 72.6919C93.3077 72.2813 93.8272 72.203 94.1983 72.4964L140.513 107.559C140.754 107.735 140.884 108.048 140.866 108.361C140.847 108.674 140.661 108.948 140.383 109.085L129.083 114.736C128.934 114.795 128.823 114.815 128.693 114.815Z" fill="white"/>
<path d="M139.993 109.163C139.715 109.163 139.455 109.026 139.288 108.772L125.928 87.867C125.669 87.4563 125.761 86.9088 126.151 86.6351C126.522 86.3613 127.06 86.459 127.32 86.8697L140.68 107.775C140.94 108.185 140.847 108.733 140.457 109.007C140.327 109.104 140.16 109.163 139.993 109.163Z" fill="white"/>
<path d="M79.4096 173.735C79.2612 173.735 79.1126 173.696 78.9827 173.618C78.5745 173.364 78.4447 172.836 78.6673 172.406L98.7259 135.641C98.9671 135.211 99.4681 135.074 99.8763 135.309C100.285 135.563 100.414 136.091 100.192 136.521L80.1332 173.286C79.9847 173.579 79.7065 173.735 79.4096 173.735Z" fill="white"/>
<path d="M32.4453 56.4999C32.334 56.4999 32.2413 56.4608 32.1485 56.3826L12.4981 36.7488C12.3311 36.5728 12.3127 36.299 12.4797 36.123C12.6467 35.947 12.9065 35.9274 13.0735 36.1034L32.7237 55.7372C32.8907 55.9132 32.9093 56.187 32.7423 56.363C32.6681 56.4608 32.5567 56.4999 32.4453 56.4999Z" fill="white"/>
<path d="M51.5205 61.4279C51.3906 61.4279 51.2793 61.3693 51.1865 61.2519L43.356 50.8874C43.2075 50.6919 43.2447 50.4182 43.4303 50.2617C43.6158 50.1053 43.8756 50.1443 44.0241 50.3399L51.8545 60.7044C52.0029 60.8999 51.9658 61.1737 51.7803 61.3302C51.7061 61.3888 51.6133 61.4279 51.5205 61.4279Z" fill="white"/>
<path d="M69.1112 80.3186C68.9256 80.3186 68.7772 80.2013 68.703 80.0057L62.3199 59.4724C62.2457 59.2377 62.3756 58.9835 62.5797 58.9053C62.8024 58.827 63.0436 58.9444 63.1178 59.1791L69.3896 79.3213L93.586 72.7506C93.8086 72.6724 94.0499 72.8289 94.1056 73.0635C94.1613 73.2982 94.0313 73.5524 93.8086 73.6111L69.2411 80.2795C69.1854 80.3186 69.1483 80.3186 69.1112 80.3186Z" fill="white"/>
<path d="M81.3393 68.1159C81.2094 68.1159 81.0981 68.0572 81.0239 67.9595C80.8755 67.7639 80.894 67.4901 81.0795 67.3337L96.1281 54.0555C96.3136 53.899 96.5734 53.9186 96.7218 54.1141C96.8703 54.3097 96.8518 54.5834 96.6662 54.7399L81.6176 68.0181C81.5248 68.0768 81.4321 68.1159 81.3393 68.1159Z" fill="white"/>
<path d="M93.0665 48.9906C92.9552 48.9906 92.8623 48.9514 92.7695 48.8732C92.6025 48.6972 92.6025 48.4235 92.751 48.2475L97.6868 42.7915C97.8538 42.6155 98.1136 42.6155 98.2806 42.7719C98.4476 42.9479 98.4476 43.2217 98.2992 43.3977L93.3448 48.8537C93.2891 48.9515 93.1778 48.9906 93.0665 48.9906Z" fill="white"/>
<path d="M93.0664 36.4359C92.9922 36.4359 92.8994 36.4164 92.8252 36.3577C92.6211 36.2208 92.5839 35.947 92.6953 35.7319L100.433 23.3728C100.563 23.1577 100.823 23.1186 101.027 23.2359C101.231 23.3728 101.268 23.6466 101.157 23.8617L93.419 36.2208C93.3447 36.3577 93.1963 36.4359 93.0664 36.4359Z" fill="white"/>
<path d="M76.2737 94.8679H58.0521C57.8851 94.8679 57.7366 94.7701 57.6624 94.6137C57.5882 94.4572 57.6068 94.2813 57.7181 94.1444L68.7772 79.595C68.9256 79.3995 69.1854 79.3799 69.371 79.5168C69.5565 79.6732 69.5751 79.947 69.4452 80.1426L58.9242 93.9684H76.0695L93.3633 73.1612C93.5117 72.9852 93.7901 72.9657 93.9571 73.1221C94.1241 73.2786 94.1427 73.5719 93.9942 73.7479L76.5705 94.7114C76.4963 94.8288 76.385 94.8679 76.2737 94.8679Z" fill="white"/>
<path d="M88.2605 111.51C88.1306 111.51 88.0007 111.451 87.9265 111.334L75.9211 94.7115C75.7727 94.5159 75.8098 94.2422 75.9953 94.0857C76.1809 93.9293 76.4407 93.9683 76.5891 94.1639L88.5945 110.786C88.7429 110.982 88.7059 111.255 88.5203 111.412C88.4461 111.471 88.3533 111.51 88.2605 111.51Z" fill="white"/>
<path d="M90.9882 92.5604C90.8027 92.5604 90.6171 92.4235 90.5799 92.2279C90.5243 91.9933 90.6541 91.7391 90.8954 91.7L111.548 86.3809C111.77 86.3026 111.993 86.459 112.049 86.7133C112.104 86.9479 111.975 87.2022 111.733 87.2413L91.081 92.5604C91.0439 92.5604 91.0253 92.5604 90.9882 92.5604Z" fill="white"/>
<path d="M122.44 95.4155H115.611C115.37 95.4155 115.185 95.2199 115.185 94.9657C115.185 94.7115 115.37 94.516 115.611 94.516H122.44C122.681 94.516 122.867 94.7115 122.867 94.9657C122.848 95.2199 122.662 95.4155 122.44 95.4155Z" fill="white"/>
<path d="M139.993 108.713C139.975 108.713 139.956 108.713 139.938 108.713L126.077 106.621C125.854 106.582 125.687 106.367 125.724 106.112C125.761 105.878 125.965 105.702 126.207 105.741L140.068 107.833C140.29 107.872 140.457 108.087 140.42 108.342C140.383 108.557 140.216 108.713 139.993 108.713Z" fill="white"/>
<path d="M36.3235 107.599C36.175 107.599 36.0266 107.501 35.9524 107.364C35.8596 107.188 35.8967 106.953 36.0451 106.816L53.0792 91.4457C53.2648 91.2893 53.5244 91.3088 53.6729 91.4848C53.8213 91.6803 53.8029 91.9541 53.6359 92.1106L37.9935 106.23L57.013 100.989C57.2356 100.911 57.4768 101.067 57.5325 101.302C57.5881 101.536 57.4583 101.791 57.2356 101.849L36.4348 107.579C36.3792 107.579 36.3606 107.599 36.3235 107.599Z" fill="white"/>
<path d="M1.12365 128.953C0.975203 128.953 0.826736 128.875 0.752513 128.719C0.659736 128.523 0.715416 128.288 0.882416 128.151L33.4288 102.827C33.6144 102.69 33.8742 102.729 34.0226 102.925C34.1525 103.12 34.1154 103.394 33.9299 103.551L3.68421 127.056L38.4759 113.856C38.6985 113.759 38.9398 113.896 39.0141 114.13C39.0883 114.365 38.9769 114.619 38.7543 114.697L1.25344 128.934C1.21633 128.934 1.16076 128.953 1.12365 128.953Z" fill="white"/>
<path d="M84.8463 135.407C84.6608 135.407 84.4937 135.27 84.438 135.074L80.3002 119.175C80.2445 118.941 80.3743 118.687 80.597 118.628C80.8382 118.569 81.061 118.706 81.1166 118.941L85.2545 134.84C85.3101 135.074 85.1803 135.328 84.9576 135.387C84.9205 135.407 84.8834 135.407 84.8463 135.407Z" fill="white"/>
<path d="M79.4096 173.305C79.2054 173.305 79.0198 173.149 78.9827 172.934L74.3624 139.748C74.3253 139.513 74.4923 139.279 74.715 139.239C74.9562 139.22 75.1603 139.376 75.1974 139.611L79.8177 172.797C79.8548 173.031 79.6878 173.266 79.4652 173.305C79.4466 173.305 79.4281 173.305 79.4096 173.305Z" fill="white"/>
</svg>
