<svg width="157" height="139" viewBox="0 0 157 139" fill="none" xmlns="http://www.w3.org/2000/svg">
<path d="M95.4804 138.286C95.2578 138.286 95.035 138.188 94.868 138.012L81.8792 123.326L5.85705 104.827C5.46739 104.729 5.18904 104.338 5.2076 103.907L8.08374 43.1483L0.587282 4.81945C0.531616 4.56522 0.587276 4.29144 0.754276 4.09589C0.90272 3.88077 1.14394 3.76345 1.38516 3.76345L38.8303 2.59011L85.3862 0.556335L85.8129 0.575895L100.323 1.2799H141.35L156.12 2.15989C156.435 2.17945 156.714 2.37501 156.844 2.66834C156.973 2.96167 156.936 3.31367 156.751 3.58745L130.254 40.1172V93.9928C130.254 94.1101 130.235 94.2274 130.179 94.3448L120.679 117.518C120.623 117.655 120.53 117.772 120.419 117.87L95.9814 138.091C95.8515 138.227 95.666 138.286 95.4804 138.286ZM95.5732 136.194L119.232 116.619L128.565 93.8363V39.8239C128.565 39.6283 128.621 39.4328 128.732 39.2763L154.431 3.82211L141.294 3.03988H100.268L86.1098 2.35544L32.0761 64.4443L95.5732 136.194ZM6.91473 103.262L79.8195 120.999L30.3318 65.0506C30.0349 64.7181 30.0349 64.1901 30.3318 63.8381L83.8275 2.39456L38.886 4.35012L2.44284 5.48433L9.75373 42.8941C9.77229 42.9723 9.7723 43.0506 9.7723 43.1092L6.91473 103.262Z" fill="white"/>
<path d="M95.4804 138.286C95.0536 138.286 94.7011 137.954 94.6454 137.504L85.6831 63.7599L84.9223 1.45589C84.9223 0.967 85.2934 0.556335 85.7573 0.556335C86.1284 0.536779 86.6109 0.94744 86.6109 1.43633L87.3531 63.6426L96.2969 137.289C96.3526 137.778 96.0371 138.227 95.5732 138.286C95.5546 138.286 95.5175 138.286 95.4804 138.286Z" fill="white"/>
<path d="M38.9045 56.1919C38.8117 56.1919 38.7004 56.1723 38.6076 56.1332L8.62188 43.911C8.1951 43.735 7.97242 43.2266 8.13942 42.7572C8.30642 42.3074 8.80741 42.0728 9.23419 42.2488L39.22 54.471C39.6468 54.647 39.8694 55.1554 39.7024 55.6248C39.554 55.9768 39.2385 56.1919 38.9045 56.1919Z" fill="white"/>
<path d="M42.2259 113.646C41.8363 113.646 41.5023 113.372 41.4095 112.962L30.1277 64.6399C30.0164 64.1705 30.2947 63.6817 30.7401 63.5643C31.1854 63.447 31.6493 63.7403 31.7606 64.2097L43.0424 112.531C43.1537 113.001 42.8754 113.49 42.4301 113.607C42.3559 113.646 42.3002 113.646 42.2259 113.646Z" fill="white"/>
<path d="M58.2765 33.9181C57.9982 33.9181 57.7384 33.7812 57.5714 33.5074L39.2386 3.88078C38.9788 3.47011 39.0901 2.92256 39.4797 2.64878C39.8694 2.375 40.389 2.49233 40.6487 2.903L58.9816 32.5297C59.2414 32.9403 59.1301 33.4879 58.7404 33.7617C58.592 33.879 58.425 33.9181 58.2765 33.9181Z" fill="white"/>
<path d="M86.5181 64.5421C86.147 64.5421 85.7944 64.2879 85.7016 63.8772C85.5717 63.4079 85.8501 62.919 86.2954 62.7821L110.752 55.9181L128.843 39.1395C129.196 38.807 129.734 38.8461 130.031 39.2177C130.346 39.5892 130.309 40.1563 129.957 40.4692L111.717 57.3848C111.624 57.4826 111.494 57.5412 111.382 57.5803L86.7407 64.503C86.6665 64.5421 86.5923 64.5421 86.5181 64.5421Z" fill="white"/>
<path d="M119.9 118.066C119.491 118.066 119.12 117.753 119.065 117.303L110.325 56.8763C110.306 56.7199 110.325 56.5439 110.381 56.407L117.654 38.103L108.117 40.1368C107.671 40.215 107.208 39.9217 107.115 39.4328C107.022 38.9439 107.319 38.4745 107.783 38.3768L118.879 36.0106C119.176 35.9323 119.491 36.0692 119.695 36.3234C119.899 36.5777 119.937 36.9297 119.825 37.223L112.013 56.8372L120.734 117.029C120.809 117.518 120.493 117.968 120.029 118.046C119.992 118.066 119.955 118.066 119.9 118.066Z" fill="white"/>
<path d="M100.064 60.7483C99.9523 60.7483 99.8595 60.7288 99.7482 60.6897C99.3214 60.5137 99.0987 59.9857 99.2843 59.5359L106.818 39.8826L85.9243 33.9181C85.4789 33.7812 85.2007 33.2923 85.3305 32.823C85.4604 32.3537 85.9058 32.0603 86.3696 32.1972L108.172 38.4159C108.414 38.4746 108.599 38.6506 108.711 38.8852C108.822 39.1199 108.822 39.3741 108.729 39.6088L100.843 60.2008C100.713 60.5332 100.398 60.7483 100.064 60.7483Z" fill="white"/>
<path d="M107.968 40.1563C107.579 40.1563 107.226 39.863 107.152 39.4523L99.4699 2.35544C99.3771 1.86655 99.6554 1.39721 100.119 1.29944C100.583 1.1821 101.029 1.495 101.121 1.98389L108.803 39.0808C108.896 39.5697 108.618 40.039 108.154 40.1368C108.08 40.1368 108.024 40.1563 107.968 40.1563Z" fill="white"/>
<path d="M119.046 37.7901C118.879 37.7901 118.73 37.751 118.582 37.6337C118.192 37.3599 118.081 36.8123 118.341 36.4017L140.107 1.65144C140.366 1.24078 140.886 1.12345 141.276 1.39723C141.665 1.671 141.777 2.21855 141.517 2.62922L119.751 37.3795C119.603 37.6532 119.324 37.7901 119.046 37.7901Z" fill="white"/>
<path d="M79.0402 122.172C78.9474 122.172 78.8732 122.153 78.799 122.094L36.6779 90.4141C36.4923 90.2772 36.4366 89.9839 36.5851 89.7883C36.715 89.5928 36.9748 89.5341 37.1789 89.6906L73.9746 117.362L33.7461 77.9572C33.5791 77.7812 33.5606 77.5074 33.7276 77.3314C33.8946 77.1554 34.1543 77.1554 34.3213 77.3119L79.3557 121.41C79.5227 121.566 79.5412 121.84 79.3928 122.016C79.3 122.114 79.1701 122.172 79.0402 122.172Z" fill="white"/>
<path d="M78.5392 121.781C78.4836 121.781 78.4279 121.781 78.3907 121.742L40.4075 105.961C40.1849 105.863 40.0921 105.609 40.1663 105.394C40.2591 105.159 40.5003 105.042 40.7044 105.139L72.4159 118.3L38.7004 98.8817C38.4963 98.7643 38.4221 98.4906 38.5334 98.2754C38.6448 98.0603 38.9046 97.9821 39.1087 98.0994L78.7433 120.921C78.9474 121.038 79.0217 121.292 78.9289 121.507C78.8547 121.683 78.6877 121.781 78.5392 121.781Z" fill="white"/>
<path d="M110.807 125.145C110.622 125.145 110.455 125.008 110.399 124.812L95.0722 61.2372C95.0166 61.0025 95.1464 60.7679 95.3506 60.7092C95.5547 60.631 95.7959 60.7483 95.8701 60.983L116.894 119.826C116.968 120.06 116.875 120.315 116.652 120.393C116.43 120.471 116.188 120.373 116.114 120.139L97.7628 68.7661L111.216 124.578C111.271 124.812 111.141 125.067 110.9 125.125C110.882 125.145 110.844 125.145 110.807 125.145Z" fill="white"/>
<path d="M103.292 131.363C103.088 131.363 102.903 131.187 102.866 130.972L95.6103 66.3021L93.1053 114.565C93.0868 114.8 92.9012 114.976 92.6785 114.976H92.66C92.4187 114.956 92.2517 114.761 92.2703 114.507L95.0536 61.0808C95.0722 60.8461 95.2392 60.6701 95.4619 60.6701C95.4619 60.6701 95.4619 60.6701 95.4804 60.6701C95.7031 60.6701 95.8701 60.8461 95.9072 61.0612L103.719 130.855C103.756 131.09 103.589 131.324 103.348 131.344C103.329 131.363 103.311 131.363 103.292 131.363Z" fill="white"/>
<path d="M89.6169 89.5732C89.5798 89.5732 89.5612 89.5732 89.5241 89.5732C89.3014 89.5145 89.153 89.2799 89.2087 89.0452L94.4784 63.9359L88.2995 75.3759C88.1881 75.591 87.9283 75.6692 87.7242 75.5323C87.5201 75.415 87.4459 75.1412 87.5758 74.9261L95.1464 60.9439C95.2392 60.7483 95.4619 60.6701 95.666 60.7483C95.8515 60.8266 95.9629 61.0417 95.9258 61.2568L90.0622 89.2408C89.988 89.4363 89.8024 89.5732 89.6169 89.5732Z" fill="white"/>
<path d="M118.007 104.455C117.84 104.455 117.673 104.338 117.617 104.162C117.19 103.184 102.736 75.767 95.1093 61.3545C94.998 61.159 95.0536 60.9048 95.2392 60.7679C95.4062 60.631 95.6659 60.6701 95.7958 60.8461L115.65 85.2514C115.799 85.447 115.78 85.7208 115.613 85.8772C115.428 86.0337 115.168 86.0141 115.019 85.8381L97.8926 64.7768C118.378 103.595 118.415 103.829 118.434 103.927C118.471 104.162 118.304 104.396 118.081 104.435C118.044 104.455 118.025 104.455 118.007 104.455Z" fill="white"/>
<path d="M113.387 72.5403C113.312 72.5403 113.238 72.5208 113.182 72.4817L95.2763 61.5306C95.0908 61.4132 95.0165 61.1981 95.0907 60.983C95.165 60.7875 95.3505 60.6506 95.5546 60.7092L112.347 64.0141C112.57 64.0532 112.737 64.2879 112.681 64.5421C112.644 64.7768 112.44 64.9528 112.18 64.8941L97.7813 62.0781L113.572 71.7386C113.776 71.8559 113.85 72.1297 113.721 72.3448C113.665 72.4621 113.535 72.5403 113.387 72.5403Z" fill="white"/>
<path d="M120.716 48.311C120.642 48.311 120.549 48.2914 120.493 48.2328C120.419 48.1741 120.345 48.135 120.363 47.8612H120.289L120.215 34.3288C120.215 34.0746 120.401 33.879 120.642 33.879C120.883 33.879 121.069 34.0746 121.069 34.3288L121.124 44.6932C122.052 41.3883 124.019 34.8568 127.953 21.8915C128.027 21.6568 128.25 21.5394 128.491 21.5981C128.713 21.6763 128.843 21.9306 128.769 22.1652C125.819 31.8843 121.403 46.551 121.143 47.8221V47.8612C121.143 47.9981 121.087 48.1154 120.994 48.1937C120.92 48.2719 120.827 48.311 120.716 48.311Z" fill="white"/>
<path d="M120.716 48.311C120.623 48.311 120.53 48.2719 120.456 48.2132L115.947 44.3999C115.762 44.2434 115.743 43.9697 115.873 43.7741C116.021 43.5786 116.281 43.559 116.467 43.6959L120.586 47.1768L144.319 2.12078C144.43 1.90567 144.69 1.82744 144.894 1.94478C145.098 2.06211 145.172 2.33588 145.061 2.55099L121.087 48.0763C121.031 48.1937 120.92 48.2719 120.79 48.2915C120.772 48.311 120.753 48.311 120.716 48.311Z" fill="white"/>
<path d="M114.129 49.719C113.925 49.719 113.758 49.5821 113.721 49.367C113.665 49.1323 113.813 48.8977 114.055 48.839L120.493 47.4701L151.722 2.53145C151.871 2.33589 152.131 2.29677 152.316 2.43366C152.502 2.57055 152.539 2.86388 152.409 3.05944L121.087 48.135C121.031 48.2132 120.939 48.2914 120.827 48.311L114.24 49.719C114.184 49.719 114.147 49.719 114.129 49.719Z" fill="white"/>
</svg>
