<svg width="158" height="165" viewBox="0 0 158 165" fill="none" xmlns="http://www.w3.org/2000/svg">
<path d="M68.6209 164.8C68.491 164.8 68.3612 164.761 68.2313 164.703L29.8213 144.208C29.7099 144.15 29.5985 144.052 29.5243 143.935L0.726165 101.89C0.596277 101.695 0.540578 101.44 0.577689 101.206L6.12578 71.3054C6.18145 71.0511 6.32986 70.8165 6.55252 70.6991C6.77519 70.5622 7.035 70.5622 7.27622 70.66L49.7313 88.6511C49.8983 88.7098 50.0283 88.8271 50.121 88.9835L81.9252 139.789C82.0922 140.063 82.1108 140.434 81.9623 140.708L69.3632 164.351C69.1962 164.644 68.9178 164.8 68.6209 164.8ZM30.7861 142.722L68.2869 162.747L80.2367 140.317L48.8593 90.196L7.59163 72.7133L2.30334 101.186L30.7861 142.722Z" fill="white"/>
<path d="M73.5382 31.2165C73.464 31.2165 73.3712 31.1969 73.297 31.1773L30.4151 17.684C30.1182 17.5862 29.8956 17.332 29.8399 17.0191C29.7657 16.7062 29.8769 16.3738 30.0996 16.1587L44.3874 2.66535C44.5359 2.52846 44.7214 2.45025 44.9255 2.43069L91.2216 0.866211C91.2958 0.866211 91.37 0.86623 91.4443 0.885786L131.988 11.2307C132.434 11.348 132.712 11.8173 132.619 12.2866L129.205 27.7942C129.112 28.1854 128.797 28.4591 128.425 28.4786L73.5938 31.1773C73.5567 31.2164 73.5382 31.2165 73.5382 31.2165ZM32.3263 16.4325L73.631 29.4173L127.683 26.7578L130.763 12.756L91.1474 2.64577L45.278 4.21025L32.3263 16.4325Z" fill="white"/>
<path d="M68.6209 164.8C68.2127 164.8 67.8601 164.488 67.7859 164.057C67.7116 163.568 68.0271 163.119 68.491 163.04L115.548 155.179L132.897 133.609L81.3315 141.158C80.8862 141.216 80.4408 140.884 80.3851 140.395C80.3295 139.906 80.6448 139.456 81.1087 139.398L134.864 131.536C135.217 131.478 135.551 131.673 135.718 131.986C135.885 132.319 135.848 132.71 135.625 132.984L116.643 156.587C116.513 156.744 116.327 156.861 116.123 156.9L68.7694 164.8C68.7137 164.8 68.658 164.8 68.6209 164.8Z" fill="white"/>
<path d="M6.9609 72.3613C6.84956 72.3613 6.71967 72.3418 6.60834 72.2831C6.18156 72.0876 5.99594 71.54 6.20006 71.1098L29.877 16.4716C30.0625 16.0218 30.5821 15.8262 30.9904 16.0413C31.4171 16.2369 31.6026 16.7845 31.3985 17.2147L7.72162 71.8529C7.59174 72.1658 7.2949 72.3613 6.9609 72.3613Z" fill="white"/>
<path d="M49.4159 90.3524C49.3046 90.3524 49.1933 90.3328 49.0819 90.2742C48.6552 90.0786 48.451 89.5506 48.6365 89.1008L72.7403 29.9649C72.9258 29.5151 73.4268 29.3 73.8536 29.4955C74.2803 29.6911 74.4844 30.2191 74.2989 30.6689L50.1952 89.8049C50.0653 90.1373 49.7499 90.3524 49.4159 90.3524Z" fill="white"/>
<path d="M134.976 133.296C134.864 133.296 134.753 133.277 134.642 133.218C134.215 133.023 134.011 132.495 134.196 132.045L156.11 77.5826V56.8733L131.06 12.5604C130.819 12.1302 130.949 11.5827 131.357 11.348C131.747 11.0938 132.285 11.2307 132.508 11.6609L157.688 56.1889C157.762 56.3258 157.799 56.4822 157.799 56.6387V77.7782C157.799 77.8956 157.78 78.0129 157.725 78.1302L135.755 132.768C135.607 133.081 135.31 133.296 134.976 133.296Z" fill="white"/>
<path d="M156.945 78.6582C156.667 78.6582 156.389 78.5017 156.222 78.228L127.628 28.0875C127.386 27.6573 127.516 27.1098 127.925 26.8751C128.314 26.6209 128.852 26.7578 129.075 27.188L157.669 77.3284C157.91 77.7586 157.78 78.3062 157.372 78.5409C157.242 78.6191 157.094 78.6582 156.945 78.6582Z" fill="white"/>
<path d="M115.993 156.45C115.956 156.45 115.901 156.45 115.863 156.431C115.659 156.352 115.548 156.137 115.585 155.922L119.463 134.528C119.5 134.294 119.723 134.118 119.964 134.176C120.187 134.216 120.335 134.45 120.298 134.704L116.958 153.087L126.607 133.375C126.718 133.16 126.978 133.062 127.182 133.179C127.386 133.296 127.479 133.57 127.368 133.785L116.383 156.216C116.29 156.372 116.142 156.45 115.993 156.45Z" fill="white"/>
<path d="M115.993 156.45C115.845 156.45 115.696 156.372 115.622 156.216L105.658 136.856C105.546 136.64 105.621 136.367 105.825 136.249C106.029 136.132 106.289 136.21 106.4 136.425L115.27 153.654L112.969 135.624C112.932 135.389 113.099 135.154 113.34 135.115C113.563 135.076 113.785 135.252 113.822 135.506L116.439 155.942C116.457 156.157 116.346 156.352 116.142 156.431C116.067 156.45 116.03 156.45 115.993 156.45Z" fill="white"/>
<path d="M115.993 156.45C115.919 156.45 115.826 156.431 115.771 156.372L90.7021 139.222C90.498 139.085 90.4423 138.811 90.5722 138.616C90.7021 138.4 90.9618 138.361 91.1474 138.479L112.987 153.419L98.6068 137.99C98.4398 137.814 98.4398 137.54 98.6068 137.364C98.7738 137.188 99.0334 137.188 99.2004 137.364L116.29 155.688C116.439 155.844 116.457 156.098 116.309 156.274C116.234 156.392 116.105 156.45 115.993 156.45Z" fill="white"/>
<path d="M115.993 156.45C115.956 156.45 115.919 156.45 115.882 156.431L78.1771 146.203C77.9545 146.144 77.806 145.89 77.8802 145.656C77.9358 145.421 78.1771 145.264 78.3998 145.343L111.837 154.416L83.6139 140.297C83.4098 140.2 83.317 139.926 83.4098 139.711C83.5026 139.496 83.7623 139.398 83.9665 139.496L116.16 155.609C116.364 155.707 116.457 155.942 116.383 156.157C116.327 156.333 116.16 156.45 115.993 156.45Z" fill="white"/>
<path d="M72.0166 158.015C71.794 158.015 71.6084 157.819 71.5899 157.584C71.5899 157.33 71.7568 157.135 71.998 157.115L110.093 155.766L75.301 151.737C75.0783 151.718 74.9113 151.483 74.9299 151.248C74.9484 151.014 75.1525 150.818 75.3937 150.857L116.03 155.57C116.253 155.59 116.42 155.805 116.401 156.04C116.401 156.274 116.216 156.45 115.993 156.47L72.0166 158.015Z" fill="white"/>
<path d="M44.1276 87.6538C44.0534 87.6538 43.9977 87.6342 43.9235 87.5951C43.7194 87.4778 43.6452 87.204 43.7566 86.9889L69.2519 37.6502L38.4496 84.8964C38.3197 85.092 38.0599 85.1506 37.8558 85.0137C37.6702 84.8769 37.6146 84.6031 37.7445 84.388L73.1671 30.0431C73.297 29.8476 73.5382 29.7889 73.7423 29.9062C73.9278 30.0235 74.0021 30.2974 73.8908 30.4929L44.4987 87.38C44.4245 87.5756 44.276 87.6538 44.1276 87.6538Z" fill="white"/>
<path d="M32.8643 82.8822C32.7715 82.8822 32.6789 82.8431 32.6046 82.7844C32.4191 82.628 32.4005 82.3542 32.5489 82.1587L67.1736 37.7871L27.4647 80.34C27.2977 80.516 27.0379 80.516 26.8709 80.34C26.7039 80.164 26.7039 79.8902 26.8709 79.7142L73.2412 30.004C73.4082 29.828 73.6494 29.828 73.8164 29.9844C73.9834 30.1409 74.002 30.4147 73.8536 30.5907L33.1798 82.7062C33.1056 82.8235 32.9757 82.8822 32.8643 82.8822Z" fill="white"/>
<path d="M20.8032 77.7782C20.6919 77.7782 20.562 77.7195 20.4878 77.6217C20.3394 77.4262 20.358 77.1525 20.5435 76.996L65.5408 36.868L14.7171 75.0013C14.5315 75.1382 14.2717 75.0991 14.1233 74.9036C13.9934 74.708 14.0305 74.4342 14.216 74.2778L73.2784 29.9649C73.4639 29.828 73.7237 29.8671 73.8536 30.0627C74.0021 30.2582 73.965 30.5125 73.798 30.6689L21.063 77.6804C20.9888 77.7391 20.896 77.7782 20.8032 77.7782Z" fill="white"/>
<path d="M7.53603 72.1463C7.38759 72.1463 7.25767 72.068 7.1649 71.9311C7.05356 71.716 7.10926 71.4422 7.31337 71.3249L62.2378 36.8876L10.208 64.8129C10.0039 64.9303 9.74415 64.8325 9.63282 64.6174C9.52148 64.4022 9.61422 64.1285 9.81833 64.0111L73.3341 29.9062C73.5382 29.8085 73.7794 29.8867 73.8907 30.0822C74.0021 30.2973 73.9278 30.5516 73.7422 30.6885L7.74011 72.068C7.68445 72.1267 7.61025 72.1463 7.53603 72.1463Z" fill="white"/>
<path d="M13.5109 56.8342C13.3439 56.8342 13.1955 56.7365 13.1213 56.5605C13.0285 56.3258 13.1399 56.0716 13.344 55.9738L64.5202 33.7587L16.8324 49.4422C16.6098 49.5204 16.3685 49.3836 16.3128 49.1489C16.2386 48.9142 16.3685 48.66 16.5912 48.6013L73.4269 29.9062C73.631 29.828 73.8721 29.9454 73.9464 30.18C74.0206 30.3952 73.9278 30.6493 73.7051 30.7471L13.678 56.8147C13.6223 56.8147 13.5666 56.8342 13.5109 56.8342Z" fill="white"/>
<path d="M19.523 42.9498C19.3188 42.9498 19.1518 42.8129 19.1147 42.5978C19.059 42.3631 19.2074 42.1285 19.4301 42.0698L65.2623 31.7445L22.2691 36.7507C22.0094 36.7702 21.8238 36.5943 21.8053 36.3596C21.7867 36.1054 21.9537 35.8903 22.1764 35.8707L73.4824 29.9062C73.7236 29.8671 73.9092 30.0431 73.9463 30.2778C73.9834 30.5125 73.835 30.7276 73.6123 30.7863L19.5971 42.9693C19.5786 42.9302 19.5601 42.9498 19.523 42.9498Z" fill="white"/>
<path d="M73.5382 30.7667C73.5197 30.7667 73.5197 30.7667 73.5382 30.7667L25.0525 30.1996C24.8113 30.1996 24.6257 30.0041 24.6443 29.7498C24.6443 29.4956 24.8299 29.3392 25.0711 29.3196L67.4705 29.8085L27.8915 23.5116C27.6688 23.4725 27.5018 23.2574 27.5389 23.0031C27.576 22.7685 27.7802 22.5925 28.0214 22.6316L73.6124 29.8867C73.8351 29.9258 73.9835 30.1214 73.965 30.356C73.9278 30.5907 73.7423 30.7667 73.5382 30.7667Z" fill="white"/>
</svg>
