<svg width="160" height="175" viewBox="0 0 160 175" fill="none" xmlns="http://www.w3.org/2000/svg">
<path d="M87.6577 174.978H74.7802C74.6688 174.978 74.5389 174.959 74.4462 174.9L59.0821 167.821C59.0079 167.782 58.9337 167.743 58.878 167.684L20.635 134.127C20.5608 134.068 20.4865 133.99 20.4494 133.892L15.8847 125.718L8.70372 114.024C8.64805 113.926 8.61104 113.828 8.57393 113.711L0.724854 70.0431C0.706299 69.9453 0.706299 69.8671 0.724854 69.7693L2.6547 53.4991L4.26903 44.2689C4.30614 44.0733 4.39883 43.8973 4.52872 43.7604L21.8039 27.3924C21.8596 27.3533 21.9153 27.3142 21.971 27.2751L66.3002 2.22445C66.3745 2.18534 66.4673 2.14623 66.5601 2.12667L78.3984 0.0146667C78.4912 -0.00488889 78.5654 -0.00488889 78.6396 0.0146667L91.2018 1.69645C91.2945 1.716 91.3874 1.73554 91.4801 1.77465L136.681 25.8084C136.737 25.8476 136.793 25.8867 136.848 25.9258L150.932 38.4022L154.959 42.3133C155.07 42.4111 155.144 42.548 155.2 42.7044L157.686 51.0546L159.319 68.2635C159.319 68.3613 159.319 68.4395 159.301 68.5373L150.821 111.872C150.802 111.97 150.765 112.068 150.709 112.166L138.704 132.23C138.667 132.288 138.611 132.367 138.556 132.406L103.356 166.628C103.3 166.687 103.226 166.726 103.17 166.765L88.0473 174.861C87.9174 174.939 87.7876 174.978 87.6577 174.978ZM74.9471 173.199H87.4535L102.298 165.259L137.331 131.193L149.188 111.364L157.612 68.3222L156.016 51.4262L153.641 43.4867L149.8 39.7711L135.828 27.3924L90.8492 3.47601L78.5469 1.83332L66.9682 3.88666L22.8616 28.8004L5.86478 44.8751L4.32464 53.7729L2.43193 69.8475L10.2253 113.222L17.3321 124.799L21.8411 132.875L59.88 166.256L74.9471 173.199Z" fill="white"/>
<path d="M102.78 166.882C102.632 166.882 102.484 166.843 102.354 166.765C101.945 166.511 101.816 165.983 102.038 165.552L106.028 158.297L110.24 115.021L107.401 97.0102L96.5272 77.6698L34.0693 32.34L22.1195 28.9178C21.6741 28.7809 21.3958 28.292 21.5257 27.8227C21.6556 27.3534 22.1195 27.0796 22.5648 27.1969L34.6445 30.6582C34.7373 30.6778 34.8299 30.7365 34.9042 30.7756L97.622 76.3009C97.7148 76.3791 97.8076 76.4769 97.8633 76.5747L108.904 96.228C108.959 96.3258 108.997 96.4236 109.015 96.5409L111.891 114.845C111.91 114.923 111.91 115.001 111.891 115.08L107.642 158.669C107.623 158.786 107.586 158.923 107.531 159.021L103.448 166.432C103.356 166.726 103.077 166.882 102.78 166.882Z" fill="white"/>
<path d="M74.7802 174.978C74.4461 174.978 74.1306 174.763 74.0007 174.431L71.2731 167.352C71.236 167.254 71.2174 167.136 71.2174 167.039L70.4938 123.371L73.9451 105.048C73.9637 104.95 74.0008 104.872 74.0379 104.793L81.3488 90.7916C81.3859 90.7133 81.4601 90.6156 81.5343 90.5569L96.6385 76.3987L140.485 42.8218L149.596 37.972C150.004 37.7569 150.524 37.9329 150.728 38.3631C150.932 38.7933 150.765 39.3409 150.357 39.556L141.358 44.3471L97.6777 77.8067L82.759 91.8085L75.5966 105.556L72.1823 123.547L72.906 166.863L75.5595 173.785C75.7265 174.235 75.5224 174.763 75.0956 174.939C74.9842 174.959 74.8729 174.978 74.7802 174.978Z" fill="white"/>
<path d="M87.6577 174.978C87.5278 174.978 87.398 174.939 87.2681 174.88C86.8598 174.646 86.6928 174.118 86.8969 173.688L90.3298 166.687L92.3894 123.215L89.5689 106.26L74.7431 106.104C74.6317 106.104 74.5204 106.084 74.4277 106.025L56.2617 97.8511L10.5779 64.0396C10.5222 64.0005 10.4666 63.9418 10.411 63.8831L2.80313 54.1836C2.58047 53.9098 2.54338 53.5187 2.71038 53.1862L10.3181 38.324C10.4294 38.1089 10.6151 37.9525 10.8377 37.8938C11.0604 37.8351 11.3016 37.8742 11.5057 37.9916L20.6165 43.9169L67.1538 76.3009L82.592 90.5373C82.6663 90.596 82.7034 90.6742 82.7591 90.7525L90.5895 104.246L107.735 95.9347L149.745 61.0085L156.443 50.4094C156.703 49.9987 157.222 49.9009 157.612 50.1551C158.002 50.4289 158.113 50.9765 157.853 51.3871L151.081 62.1036C151.025 62.1818 150.969 62.26 150.895 62.2991L108.7 97.3818C108.644 97.4209 108.588 97.46 108.533 97.4991L91.2018 105.888L94.0593 123C94.0779 123.058 94.0779 123.136 94.0779 123.195L91.9997 166.96C91.9997 167.097 91.9626 167.215 91.907 167.332L88.3814 174.509C88.2515 174.802 87.9546 174.978 87.6577 174.978ZM74.9472 104.304L88.7711 104.461L81.423 91.7889L66.1704 77.7089L19.7444 45.4031L11.4129 39.9862L4.51033 53.4991L11.6727 62.6316L57.0967 96.2867L74.9472 104.304Z" fill="white"/>
<path d="M71.3288 124.212C71.2174 124.212 71.1061 124.192 71.0134 124.153L52.4578 116.057C52.3836 116.038 52.328 115.999 52.2723 115.94L7.70182 80.7791C7.62759 80.7205 7.55342 80.6423 7.5163 80.564L0.873383 70.356C0.613606 69.9454 0.706374 69.3978 1.09604 69.124C1.48571 68.8502 2.00527 68.948 2.26505 69.3587L8.83368 79.4494L53.2001 114.454L71.5144 122.432L93.0945 122.276L110.667 114.219L151.173 78.5498L157.761 67.8725C158.02 67.4618 158.54 67.3445 158.93 67.6182C159.319 67.892 159.431 68.4396 159.171 68.8502L152.509 79.6449C152.454 79.7231 152.398 79.7818 152.342 79.8405L111.65 115.666C111.594 115.725 111.52 115.764 111.446 115.803L93.5955 123.977C93.4841 124.016 93.3728 124.056 93.2615 124.056L71.3288 124.212C71.3473 124.212 71.3473 124.212 71.3288 124.212Z" fill="white"/>
<path d="M59.4161 167.88C59.0635 167.88 58.7481 167.645 58.6182 167.293L56.2802 160.429C56.2617 160.351 56.2432 160.292 56.2246 160.214L51.9383 115.295C51.9383 115.197 51.9382 115.099 51.9567 115.021L55.7977 96.8147C55.8163 96.7365 55.8349 96.6582 55.872 96.58L65.9847 76.5942C66.0404 76.4965 66.1147 76.3987 66.2075 76.3205L80.2169 64.3916L126.031 29.9933C126.086 29.9542 126.142 29.9151 126.198 29.8956L135.976 25.7693C136.403 25.5933 136.904 25.8084 137.071 26.2582C137.238 26.708 137.034 27.236 136.607 27.412L126.921 31.4991L81.2189 65.7996L67.395 77.5916L57.4121 97.3036L53.6268 115.256L57.8945 159.92L60.214 166.667C60.381 167.136 60.1398 167.645 59.7131 167.801C59.6017 167.86 59.5089 167.88 59.4161 167.88Z" fill="white"/>
<path d="M72.0524 167.88C71.9411 167.88 71.8298 167.86 71.7184 167.801L56.7255 160.937C56.6513 160.898 56.5957 160.859 56.5214 160.82L16.3116 126.363C16.1631 126.226 16.0517 126.05 16.0146 125.855L7.36778 80.2316C7.34922 80.1143 7.34922 80.0164 7.36778 79.8991L10.2439 63.1205C10.2624 63.0423 10.2809 62.9445 10.318 62.8662L19.4289 44.2298C19.4846 44.132 19.5402 44.0342 19.6144 43.9756L33.8466 30.8147L76.9697 5.80311L66.5043 3.84756C66.0404 3.76934 65.7436 3.30001 65.8178 2.81112C65.892 2.32223 66.3373 2.00935 66.8012 2.08757L79.4561 4.45381L90.8678 1.67689C91.3502 1.55956 91.777 1.87247 91.8883 2.3418C91.9997 2.83069 91.7028 3.30003 91.2575 3.41736L81.9426 5.68579L126.866 29.9347C126.921 29.9738 126.977 29.9934 127.014 30.052L141.469 42.8218C141.543 42.9 141.617 42.9783 141.673 43.076L151.118 61.1649C151.173 61.2823 151.21 61.3996 151.21 61.5169L152.602 79.0582C152.602 79.1365 152.602 79.2147 152.602 79.2929L145.848 120.086C145.811 120.262 145.737 120.418 145.625 120.555L138.296 128.592L107.419 159.197C107.364 159.256 107.289 159.295 107.215 159.334L91.5358 167.684C91.4244 167.743 91.2945 167.782 91.1646 167.782L72.0524 167.88ZM57.5049 159.373L72.2195 166.1L90.9605 166.022L106.362 157.828L137.127 127.341L144.252 119.519L150.951 79.0974L149.596 61.8689L140.318 44.0734L126.049 31.4796L79.5489 6.38979L34.8671 32.2618L20.8947 45.188L11.9139 63.5507L9.07486 80.036L17.6289 125.17L57.5049 159.373Z" fill="white"/>
<path d="M72.0524 167.449C72.0153 167.449 71.9782 167.449 71.9225 167.43C71.7184 167.352 71.5886 167.136 71.6257 166.902L80.6994 123.234C80.755 123 80.9591 122.863 81.2003 122.902C81.423 122.96 81.5715 123.195 81.5158 123.43L73.5368 161.856L88.2885 123.039C88.3813 122.804 88.6225 122.706 88.8452 122.784C89.0678 122.882 89.1606 123.136 89.0864 123.371L72.4421 167.176C72.3865 167.332 72.2194 167.449 72.0524 167.449Z" fill="white"/>
<path d="M72.0524 167.449C71.9596 167.449 71.8669 167.41 71.7927 167.352C71.6257 167.215 71.57 166.96 71.6814 166.765L92.5193 130.568C92.6307 130.352 92.8904 130.294 93.0945 130.411C93.2986 130.548 93.3542 130.822 93.2429 131.017L74.3534 163.832L91.907 144.765C92.074 144.589 92.3337 144.589 92.5007 144.765C92.6677 144.941 92.6677 145.215 92.5007 145.391L72.3494 167.293C72.2752 167.391 72.1637 167.449 72.0524 167.449Z" fill="white"/>
<path d="M72.0524 167.449C71.8854 167.449 71.737 167.352 71.6628 167.195C71.57 167 71.6442 166.745 71.8298 166.628L91.5543 153.917C91.7584 153.8 92.0182 153.858 92.1295 154.073C92.2594 154.288 92.1852 154.562 91.9811 154.68L75.1512 165.513L91.3317 160.214C91.5543 160.136 91.7955 160.272 91.8697 160.507C91.944 160.742 91.8141 160.996 91.5915 161.074L72.1823 167.43C72.1452 167.43 72.0895 167.449 72.0524 167.449Z" fill="white"/>
</svg>
